<svg version="1.2" baseProfile="tiny-ps" xmlns="http://www.w3.org/2000/svg" viewBox="0 0 1500 1500" width="500" height="500">
	<title>3198858-ai</title>
	<style>
		tspan { white-space:pre }
		.shp0 { fill: none } 
		.shp1 { fill: #e0e0e0 } 
		.shp2 { fill: #455a64 } 
		.shp3 { fill: #fafafa } 
		.shp4 { fill: #e07a5f } 
		.shp5 { fill: #263238 } 
		.shp6 { fill: #c27864 } 
		.shp7 { fill: #000000 } 
		.shp8 { fill: #263138 } 
		.shp9 { fill: #eb996e } 
		.shp10 { fill: #3d405b } 
		.shp11 { fill: #ffbe9d } 
		.shp12 { fill: #f2cc8f } 
		.shp13 { fill: #d3b37e } 
		.shp14 { fill: #81b29a } 
	</style>
	<g id="Background Complete">
		<g id="&lt;Group&gt;">
			<g id="&lt;Group&gt;">
				<g id="&lt;Group&gt;">
					<g id="&lt;Group&gt;">
						<g id="&lt;Group&gt;">
							<g id="&lt;Group&gt;">
								<g id="&lt;Group&gt;">
									<path id="&lt;Compound Path&gt;" class="shp0" d="" />
								</g>
							</g>
						</g>
					</g>
				</g>
				<g id="&lt;Group&gt;">
					<g id="&lt;Group&gt;">
						<g id="&lt;Group&gt;">
							<g id="&lt;Group&gt;">
								<g id="&lt;Group&gt;">
									<g id="&lt;Group&gt;">
									</g>
								</g>
							</g>
						</g>
					</g>
				</g>
				<g id="&lt;Group&gt;">
					<g id="&lt;Group&gt;">
						<g id="&lt;Group&gt;">
							<g id="&lt;Group&gt;">
								<g id="&lt;Group&gt;">
									<g id="&lt;Group&gt;">
									</g>
								</g>
							</g>
						</g>
					</g>
				</g>
			</g>
			<g id="&lt;Group&gt;">
				<g id="&lt;Group&gt;">
					<g id="&lt;Group&gt;">
						<g id="&lt;Group&gt;">
							<g id="&lt;Group&gt;">
							</g>
						</g>
					</g>
				</g>
			</g>
		</g>
		<g id="&lt;Group&gt;">
			<g id="&lt;Group&gt;">
				<g id="&lt;Group&gt;">
					<g id="&lt;Group&gt;">
						<g id="&lt;Group&gt;">
							<g id="&lt;Group&gt;">
								<g id="&lt;Group&gt;">
									<g id="&lt;Group&gt;">
									</g>
								</g>
							</g>
						</g>
					</g>
				</g>
				<g id="&lt;Group&gt;">
					<g id="&lt;Group&gt;">
						<g id="&lt;Group&gt;">
							<g id="&lt;Group&gt;">
								<g id="&lt;Group&gt;">
									<g id="&lt;Group&gt;">
									</g>
								</g>
							</g>
						</g>
					</g>
				</g>
				<g id="&lt;Group&gt;">
					<g id="&lt;Group&gt;">
						<g id="&lt;Group&gt;">
							<g id="&lt;Group&gt;">
								<g id="&lt;Group&gt;">
									<g id="&lt;Group&gt;">
										<g id="&lt;Group&gt;">
											<path id="&lt;Compound Path&gt;" class="shp0" d="" />
										</g>
										<g id="&lt;Group&gt;">
											<g id="&lt;Group&gt;">
												<path id="&lt;Path&gt;" class="shp1" d="M631.16 659.33C631.19 659.29 631.66 659.55 632.54 660.1C633.43 660.64 634.67 661.57 636.07 662.97C638.87 665.69 642.41 670.73 643.16 677.93C643.51 681.48 643.19 685.51 641.64 689.46C640.08 693.37 637.51 697.29 633.71 700.21C631.86 701.71 629.71 702.94 627.39 703.85C625.08 704.79 622.56 705.39 619.97 705.57C614.79 706.03 609.3 704.69 604.6 701.81C599.95 698.85 596.34 694.5 594.49 689.63C593.51 687.23 592.94 684.7 592.78 682.21C592.58 679.72 592.75 677.25 593.29 674.93C594.25 670.24 596.65 666.21 599.48 663.1C602.35 659.98 605.84 657.92 609.18 656.68C615.98 654.21 622.07 655.18 625.74 656.5C627.61 657.16 628.99 657.86 629.86 658.43C630.74 658.98 631.19 659.29 631.16 659.33C631.07 659.5 629.25 658.23 625.55 657.08C621.91 655.97 616.03 655.22 609.57 657.71C606.4 658.96 603.12 660.98 600.44 663.98C597.79 666.97 595.56 670.8 594.7 675.23C594.2 677.42 594.07 679.75 594.27 682.09C594.44 684.44 594.98 686.81 595.91 689.07C597.67 693.63 601.06 697.7 605.43 700.49C609.84 703.19 614.98 704.45 619.86 704.04C622.29 703.89 624.66 703.34 626.84 702.46C629.03 701.62 631.07 700.48 632.82 699.07C636.43 696.36 638.9 692.67 640.43 688.99C641.95 685.26 642.33 681.43 642.06 678.03C641.48 671.14 638.23 666.17 635.63 663.39C632.98 660.56 631.05 659.48 631.16 659.33Z" />
											</g>
										</g>
										<g id="&lt;Group&gt;">
											<g id="&lt;Group&gt;">
												<path id="&lt;Path&gt;" class="shp1" d="M658.57 641C658.55 641 658.62 640.72 658.8 640.16C659 639.54 659.27 638.72 659.61 637.66C660.38 635.36 661.48 632.07 662.91 627.8L663.01 628.09C658 625 651.41 620.94 643.45 616.03L643.94 615.98C640.99 618.98 637.71 622.31 634.2 625.88L634.01 626.07L633.74 625.99C629.27 624.63 624.33 623.75 619.08 623.59L618.77 623.58L618.63 623.3C616.74 619.41 614.69 615.19 612.56 610.81L613.18 611.11C606.13 612.75 598.65 614.5 590.8 616.33L591.28 615.73C591.3 620.03 591.33 624.76 591.36 629.62L591.36 630.01L591.02 630.19C586.94 632.35 582.74 635.25 578.97 638.81L578.67 639.09L578.29 638.95C574.22 637.54 569.74 635.98 565.17 634.39L565.99 634.11C562.17 640.23 558.05 646.84 553.83 653.61L553.72 652.71C556.8 655.75 560.17 659.1 563.59 662.48L563.91 662.8L563.78 663.23C562.41 667.66 561.51 672.68 561.35 677.81L561.33 678.27L560.92 678.47C557 680.36 552.73 682.43 548.41 684.51L548.82 683.65C550.46 690.74 552.22 698.34 554 706.05L553.24 705.45C557.63 705.43 562.36 705.41 567.13 705.39L567.61 705.39L567.83 705.81C570.01 709.96 572.92 714.13 576.39 717.83L576.39 717.84L576.4 717.84C576.47 718.19 576.23 717.05 576.57 718.63L576.56 718.65L576.55 718.67L576.53 718.72L576.5 718.83L576.43 719.03L576.28 719.45L575.99 720.27L575.42 721.92L574.27 725.21C573.5 727.4 572.74 729.57 571.98 731.74L571.66 730.83C578.25 734.95 584.75 739.01 591.15 743.02L590.19 743.13C593.49 739.81 596.75 736.53 599.98 733.28L600.3 732.95L600.75 733.08C605.53 734.56 610.45 735.37 615.33 735.53L615.78 735.55L615.98 735.96C618.02 740.2 620.03 744.36 622.01 748.48L621.17 748.08C628.82 746.32 636.29 744.61 643.57 742.94L643.01 743.64C643 738.93 642.99 734.3 642.98 729.75L642.98 729.32L643.36 729.13C647.83 726.77 651.89 723.86 655.43 720.56L655.73 720.28L656.11 720.42C660.6 721.99 664.96 723.52 669.21 725.02L668.45 725.29C672.75 718.44 676.81 711.98 680.68 705.83L680.77 706.57C677.31 703.12 674.06 699.88 670.94 696.76L670.69 696.52L670.79 696.2C672.37 691.14 673.12 686.24 673.29 681.56L673.3 681.25L673.58 681.12C678.13 678.94 682.24 676.98 686.12 675.13L685.87 675.65C683.91 666.96 682.24 659.56 680.81 653.23L681.15 653.5C675.61 653.48 671.06 653.46 667.26 653.45L667.11 653.45L667.04 653.32C664.71 648.84 662.45 645.82 660.92 643.87C660.16 642.95 659.58 642.25 659.14 641.72C658.73 641.23 658.55 641 658.57 641C658.59 640.99 658.82 641.21 659.24 641.63C659.67 642.08 660.31 642.76 661.12 643.71C662.72 645.62 665.06 648.6 667.48 653.08L667.26 652.95C671.06 652.91 675.61 652.86 681.15 652.8L681.43 652.79L681.49 653.07C682.98 659.39 684.72 666.78 686.77 675.44L686.85 675.8L686.52 675.96C682.65 677.84 678.56 679.83 674.03 682.04L674.32 681.6C674.17 686.36 673.44 691.36 671.87 696.53L671.73 695.96C674.87 699.07 678.13 702.29 681.61 705.72L681.95 706.05L681.7 706.46C677.86 712.63 673.82 719.11 669.55 725.98L669.28 726.42L668.78 726.25C664.53 724.77 660.16 723.25 655.67 721.69L656.35 721.55C652.74 724.94 648.59 727.94 644.01 730.37L644.38 729.74C644.41 734.29 644.43 738.92 644.45 743.64L644.46 744.21L643.9 744.34C636.62 746.03 629.15 747.76 621.51 749.53L620.93 749.66L620.67 749.13C618.68 745.01 616.67 740.85 614.62 736.62L615.28 737.05C610.26 736.89 605.21 736.06 600.3 734.55L601.07 734.35C597.84 737.61 594.58 740.9 591.29 744.22L590.85 744.66L590.33 744.33C583.92 740.33 577.42 736.26 570.83 732.15L570.31 731.82L570.51 731.23C571.27 729.06 572.03 726.88 572.79 724.69L573.94 721.4L574.52 719.76L574.81 718.93L574.95 718.52L575.02 718.31L575.06 718.21L575.08 718.16L575.09 718.13L575.09 718.12C575.43 719.7 575.18 718.55 575.26 718.91L575.25 718.9L575.25 718.9C571.68 715.1 568.69 710.81 566.45 706.53L567.14 706.95C562.37 706.97 557.63 706.98 553.24 707L552.62 707L552.48 706.4C550.71 698.69 548.96 691.09 547.33 683.99L547.19 683.4L547.75 683.13C552.07 681.05 556.34 678.99 560.27 677.11L559.84 677.76C560.01 672.5 560.95 667.34 562.36 662.79L562.54 663.54C559.13 660.14 555.76 656.79 552.7 653.74L552.29 653.33L552.59 652.84C556.83 646.08 560.97 639.48 564.81 633.37L565.1 632.89L565.63 633.08C570.19 634.68 574.67 636.25 578.73 637.68L578.05 637.82C581.92 634.2 586.24 631.24 590.41 629.05L590.07 629.62C590.06 624.77 590.05 620.03 590.05 615.73L590.05 615.24L590.52 615.13C598.39 613.34 605.88 611.63 612.93 610.02L613.37 609.92L613.56 610.32C615.66 614.72 617.69 618.95 619.56 622.86L619.11 622.57C624.46 622.76 629.48 623.7 634.01 625.12L633.55 625.23C637.09 621.7 640.4 618.39 643.37 615.42L643.6 615.19L643.87 615.36C651.77 620.37 658.3 624.52 663.28 627.67L663.45 627.78L663.38 627.97C661.86 632.15 660.68 635.39 659.86 637.64C659.47 638.7 659.16 639.52 658.93 640.14C658.71 640.7 658.59 640.99 658.57 641Z" />
											</g>
										</g>
									</g>
								</g>
							</g>
						</g>
					</g>
				</g>
			</g>
		</g>
	</g>
	<g id="Device">
		<g id="&lt;Group&gt;">
			<g id="&lt;Group&gt;">
				<g id="&lt;Group&gt;">
					<g id="&lt;Group&gt;">
						<g id="&lt;Group&gt;">
							<g id="&lt;Group&gt;">
								<g id="&lt;Group&gt;">
									<g id="&lt;Group&gt;">
										<path id="&lt;Path&gt;" class="shp2" d="M1000.97 1337.62L602.38 1335.77C554.44 1335.55 515.76 1296.52 515.96 1248.58L520.18 249.32C520.39 201.35 559.44 162.64 607.41 162.86L1006 164.7C1053.94 164.92 1092.62 203.95 1092.42 251.89L1088.19 1251.16C1087.99 1299.12 1048.94 1337.84 1000.97 1337.62Z" />
									</g>
								</g>
								<g id="&lt;Group&gt;">
									<g id="&lt;Group&gt;">
										<path id="&lt;Path&gt;" class="shp3" d="M1006.43 184.18L929.15 183.83C918.79 183.78 910.34 192.53 910.3 203.36L910.24 217.38C910.2 228.21 901.76 236.96 891.39 236.91L740.76 236.21C730.4 236.16 722.03 227.34 722.08 216.51L722.14 202.49C722.18 191.66 713.82 182.83 703.45 182.79L676.27 182.66L608.64 182.35C575.04 182.19 547.69 209.31 547.55 242.9L543.43 1218.25C543.28 1251.83 570.38 1279.17 603.95 1279.32L1001.74 1281.16C1035.33 1281.31 1062.69 1254.2 1062.83 1220.61L1066.95 245.25C1067.09 211.67 1040 184.34 1006.43 184.18Z" />
									</g>
								</g>
							</g>
						</g>
					</g>
				</g>
				<g id="&lt;Group&gt;">
				</g>
				<g id="&lt;Group&gt;">
				</g>
				<g id="&lt;Group&gt;">
				</g>
				<g id="&lt;Group&gt;">
				</g>
				<g id="&lt;Group&gt;">
				</g>
				<g id="&lt;Group&gt;">
				</g>
				<g id="&lt;Group&gt;">
				</g>
				<g id="&lt;Group&gt;">
				</g>
				<g id="&lt;Group&gt;">
				</g>
				<g id="&lt;Group&gt;">
				</g>
				<g id="&lt;Group&gt;">
				</g>
				<g id="&lt;Group&gt;">
					<g id="&lt;Group&gt;">
						<g id="&lt;Group&gt;">
							<g id="&lt;Group&gt;">
								<g id="&lt;Group&gt;">
									<g id="&lt;Group&gt;">
									</g>
								</g>
							</g>
						</g>
					</g>
					<g id="&lt;Group&gt;">
						<g id="&lt;Group&gt;">
							<g id="&lt;Group&gt;">
								<g id="&lt;Group&gt;">
									<g id="&lt;Group&gt;">
										<g id="&lt;Group&gt;">
											<path id="&lt;Path&gt;" class="shp3" d="M820.92 547.67C822.09 547.94 823.56 548.68 825.33 549.88C827.93 551.65 831.45 555.15 833.07 560.76C833.85 563.53 834.16 566.77 833.48 570.12C832.8 573.44 831.32 576.92 828.72 579.77C827.46 581.22 825.93 582.5 824.22 583.55C822.52 584.63 820.61 585.46 818.58 585.96C814.53 587.06 809.99 586.78 805.86 585.16C801.75 583.47 798.28 580.53 796.12 576.94C795 575.17 794.19 573.25 793.71 571.3C793.2 569.35 792.98 567.37 793.08 565.45C793.17 561.59 794.51 558.06 796.31 555.19C798.14 552.3 800.61 550.17 803.09 548.71C808.14 545.79 813.11 545.69 816.21 546.21C818.32 546.57 819.89 547.06 820.92 547.67C820.88 547.8 819.26 547.04 816.15 546.65C813.09 546.27 808.3 546.51 803.5 549.41C801.15 550.86 798.82 552.92 797.11 555.7C795.43 558.46 794.19 561.83 794.13 565.49C794.05 567.31 794.27 569.18 794.77 571.02C795.23 572.87 796 574.68 797.07 576.35C799.12 579.74 802.4 582.5 806.28 584.1C810.19 585.63 814.47 585.9 818.3 584.88C820.22 584.41 822.03 583.63 823.65 582.62C825.27 581.64 826.73 580.44 827.93 579.07C830.42 576.39 831.86 573.09 832.56 569.94C833.24 566.75 832.99 563.65 832.29 560.98C830.84 555.56 827.54 552.08 825.07 550.24C822.55 548.37 820.86 547.79 820.92 547.67Z" />
										</g>
									</g>
								</g>
							</g>
						</g>
					</g>
					<g id="&lt;Group&gt;">
						<g id="&lt;Group&gt;">
							<g id="&lt;Group&gt;">
								<g id="&lt;Group&gt;">
									<g id="&lt;Group&gt;">
										<g id="&lt;Group&gt;">
											<path id="&lt;Path&gt;" class="shp3" d="M840.11 529.19C840.1 529.2 840.12 528.96 840.18 528.49C840.25 527.98 840.35 527.29 840.47 526.39C840.76 524.46 841.17 521.69 841.71 518.08L841.82 518.28C837.4 516.54 831.59 514.24 824.55 511.46L824.9 511.36C822.98 514.16 820.84 517.28 818.56 520.61L818.45 520.78L818.24 520.75C814.5 520.31 810.44 520.3 806.23 520.92L806.01 520.96L805.87 520.77C803.82 517.94 801.59 514.88 799.27 511.7L799.76 511.83C794.39 514.14 788.69 516.59 782.7 519.16L782.97 518.66C783.6 522.08 784.29 525.84 785.01 529.7L785.06 529.98L784.83 530.16C781.9 532.45 778.96 535.36 776.46 538.73L776.29 538.97L775.99 538.92C772.56 538.37 768.77 537.77 764.91 537.16L765.47 536.84C763.3 542.26 760.96 548.1 758.57 554.08L758.37 553.45C761.25 555.43 764.41 557.61 767.61 559.82L767.88 560L767.84 560.33C767.38 564.05 767.38 568.18 767.98 572.29L768.03 572.62L767.76 572.81C764.91 574.88 761.8 577.12 758.67 579.4L758.85 578.72C761.16 584.13 763.64 589.92 766.15 595.8L765.52 595.46C769.01 594.82 772.77 594.14 776.56 593.44L776.9 593.38L777.12 593.65C779.45 596.65 782.35 599.56 785.65 602.01L785.65 602.01L785.65 602.02C785.75 602.26 785.43 601.47 785.88 602.57L785.88 602.58L785.87 602.6L785.86 602.64L785.85 602.73L785.82 602.9L785.77 603.25L785.65 603.95L785.43 605.34L784.98 608.12C784.69 609.97 784.39 611.81 784.1 613.64L783.75 613.02C789.57 615.36 795.31 617.67 800.97 619.95L800.3 620.15C802.45 617.05 804.57 613.97 806.68 610.93L806.87 610.65L807.21 610.69C811.23 611.19 815.26 611.13 819.17 610.57L819.5 610.52L819.69 610.79C821.92 613.87 824.1 616.9 826.27 619.89L825.61 619.71C831.44 617.22 837.14 614.8 842.69 612.44L842.38 613.01C841.7 609.27 841.04 605.59 840.38 601.97L840.32 601.66L840.57 601.47C843.8 598.96 846.61 596.07 848.96 592.94L849.14 592.7L849.43 592.74C853.23 593.36 856.91 593.96 860.51 594.54L859.99 594.83C862.44 588.78 864.75 583.06 866.95 577.62L867.11 578.14C863.87 575.89 860.83 573.78 857.89 571.74L857.69 571.6L857.72 571.35C858.25 567.1 858.15 563.1 857.62 559.35L857.59 559.13L857.77 558.99C861.08 556.62 864.07 554.47 866.89 552.45L866.77 552.85C863.98 546.23 861.6 540.58 859.56 535.75L859.84 535.9C855.43 536.67 851.81 537.31 848.79 537.84L848.68 537.86L848.61 537.77C846.12 534.55 843.89 532.47 842.39 531.14C841.66 530.51 841.09 530.03 840.68 529.68C840.28 529.35 840.1 529.2 840.11 529.19C840.13 529.18 840.34 529.33 840.74 529.6C841.14 529.9 841.74 530.35 842.52 530.99C844.06 532.28 846.34 534.33 848.9 537.55L848.73 537.48C851.74 536.91 855.35 536.23 859.75 535.39L859.95 535.35L860.03 535.54C862.11 540.36 864.54 545.99 867.4 552.59L867.5 552.84L867.28 553C864.48 555.04 861.51 557.2 858.21 559.6L858.36 559.24C858.93 563.05 859.05 567.12 858.53 571.45L858.36 571.07C861.3 573.09 864.35 575.19 867.6 577.42L867.89 577.62L867.76 577.95C865.58 583.4 863.3 589.12 860.87 595.19L860.73 595.54L860.36 595.48C856.76 594.91 853.08 594.32 849.28 593.72L849.75 593.53C847.36 596.74 844.49 599.71 841.2 602.28L841.39 601.79C842.05 605.4 842.73 609.08 843.42 612.82L843.49 613.24L843.11 613.4C837.56 615.78 831.86 618.21 826.04 620.71L825.64 620.88L825.38 620.53C823.22 617.54 821.02 614.51 818.8 611.44L819.33 611.66C815.32 612.25 811.19 612.31 807.07 611.8L807.6 611.56C805.5 614.61 803.37 617.69 801.23 620.8L800.97 621.17L800.55 621C794.89 618.73 789.14 616.42 783.32 614.08L782.9 613.91L782.97 613.46C783.26 611.63 783.56 609.79 783.86 607.94L784.3 605.16L784.53 603.77L784.64 603.07L784.69 602.72L784.72 602.55L784.74 602.46L784.74 602.42L784.75 602.4L784.75 602.39C785.19 603.48 784.87 602.69 784.97 602.93L784.97 602.93L784.96 602.93C781.59 600.41 778.61 597.43 776.22 594.36L776.77 594.57C772.98 595.26 769.21 595.94 765.73 596.58L765.28 596.66L765.1 596.24C762.6 590.37 760.13 584.57 757.82 579.16L757.65 578.75L758.01 578.49C761.15 576.22 764.26 573.98 767.11 571.92L766.88 572.45C766.27 568.24 766.28 564.01 766.76 560.2L766.99 560.71C763.79 558.5 760.64 556.31 757.77 554.32L757.42 554.08L757.58 553.69C759.99 547.71 762.34 541.87 764.52 536.46L764.67 536.09L765.08 536.15C768.93 536.78 772.71 537.39 776.15 537.95L775.67 538.14C778.24 534.71 781.24 531.74 784.25 529.41L784.08 529.87C783.38 526.01 782.7 522.25 782.08 518.83L782.02 518.47L782.35 518.33C788.35 515.79 794.06 513.37 799.44 511.08L799.74 510.96L799.93 511.22C802.23 514.42 804.44 517.49 806.48 520.33L806.12 520.18C810.4 519.57 814.53 519.61 818.32 520.09L818.01 520.23C820.32 516.91 822.48 513.82 824.42 511.03L824.56 510.84L824.77 510.92C831.77 513.78 837.56 516.15 841.96 517.94L842.09 518L842.07 518.14C841.46 521.7 840.98 524.44 840.66 526.34C840.49 527.25 840.37 527.94 840.27 528.46C840.18 528.94 840.13 529.18 840.11 529.19Z" />
										</g>
									</g>
								</g>
							</g>
						</g>
					</g>
				</g>
				<g id="&lt;Group&gt;">
					<g id="&lt;Group&gt;">
					</g>
					<g id="&lt;Group&gt;">
					</g>
					<g id="&lt;Group&gt;">
					</g>
					<g id="&lt;Group&gt;">
					</g>
					<g id="&lt;Group&gt;">
						<g id="&lt;Group&gt;">
						</g>
					</g>
				</g>
				<g id="&lt;Group&gt;">
					<g id="&lt;Group&gt;">
						<g id="&lt;Group&gt;">
							<path id="&lt;Path&gt;" class="shp1" d="M981.51 633.85L628.6 633.85C620.18 633.85 613.36 627.03 613.36 618.62L613.36 617.88C613.36 609.47 620.18 602.65 628.6 602.65L981.51 602.65C989.93 602.65 996.75 609.47 996.75 617.88L996.75 618.62C996.75 627.03 989.93 633.85 981.51 633.85Z" />
						</g>
						<g id="&lt;Group&gt;">
							<path id="&lt;Path&gt;" class="shp4" d="M801.54 634.85L628.6 634.85C620.18 634.85 613.36 628.03 613.36 619.62L613.36 618.88C613.36 610.47 620.18 603.65 628.6 603.65L801.54 603.65C809.95 603.65 816.77 610.47 816.77 618.88L816.77 619.62C816.77 628.03 809.95 634.85 801.54 634.85Z" />
						</g>
					</g>
				</g>
			</g>
			<g id="&lt;Group&gt;">
			</g>
		</g>
	</g>
	<g id="Floor">
		<g id="&lt;Group&gt;">
			<g id="&lt;Group&gt;">
				<path id="&lt;Path&gt;" class="shp5" d="M1455.59 1336.74C1455.59 1337.17 1139.66 1337.52 750.03 1337.52C360.27 1337.52 44.41 1337.17 44.41 1336.74C44.41 1336.3 360.27 1335.95 750.03 1335.95C1139.66 1335.95 1455.59 1336.3 1455.59 1336.74Z" />
			</g>
		</g>
	</g>
	<g id="Character">
		<g id="&lt;Group&gt;">
			<g id="&lt;Group&gt;">
				<path id="&lt;Path&gt;" class="shp6" d="M595.09 1302.49L603.71 1335.49L700.28 1334.61C691.47 1327.96 670.9 1324.87 638.55 1325.35L633.84 1302.49L595.09 1302.49Z" />
			</g>
			<g id="&lt;Group&gt;">
				<g id="&lt;Group&gt;">
					<path id="&lt;Path&gt;" class="shp4" d="M487.81 929.69L415.37 936.53L385.94 944.86C373.36 948.42 361.85 955.01 352.42 964.07L257.6 1055.08L240.29 913.69L192.91 917.81L200.82 1099.81C207.88 1121.96 228.45 1137.48 252.46 1137.55C266.67 1137.58 280.25 1131.58 290.6 1121.85L358.13 1058.38L351.42 1142.13L328.21 1194.19L493.96 1287.79C506.94 1223.55 516.91 1169.2 523.88 1124.76C529.51 1088.8 533.77 1031.67 536.63 953.36L487.81 929.69Z" />
				</g>
				<g id="&lt;Group&gt;">
					<path id="&lt;Path&gt;" class="shp4" d="M534.32 951.69C558.75 960.75 573.92 974.85 579.83 993.98C585.07 1010.95 596.43 1067.15 613.91 1162.58L639.92 1314.07L585.45 1316.14L522.73 1057.95L534.32 951.69Z" />
				</g>
				<g id="&lt;Group&gt;">
					<g id="&lt;Group&gt;">
						<path id="&lt;Path&gt;" class="shp5" d="M352.04 1138.42C351.61 1138.38 354.04 1109.37 357.46 1073.65C360.89 1037.91 364.01 1008.98 364.44 1009.02C364.87 1009.06 362.44 1038.05 359.02 1073.79C355.6 1109.52 352.47 1138.46 352.04 1138.42Z" />
					</g>
				</g>
				<g id="&lt;Group&gt;">
					<g id="&lt;Group&gt;">
						<path id="&lt;Path&gt;" class="shp5" d="M472.68 1067.21C472.73 1067.23 472.56 1067.71 472.2 1068.62C471.75 1069.69 471.2 1070.99 470.54 1072.57C469.83 1074.29 468.9 1076.37 467.63 1078.68C466.38 1081.01 465.08 1083.74 463.26 1086.53C462.39 1087.95 461.47 1089.43 460.52 1090.98C459.55 1092.52 458.4 1094.02 457.28 1095.62C455.1 1098.88 452.39 1102.08 449.61 1105.5C443.84 1112.15 436.96 1119.01 429.02 1125.39C421.02 1131.68 412.77 1136.82 404.98 1140.94C401.02 1142.87 397.3 1144.79 393.63 1146.18C391.81 1146.9 390.08 1147.69 388.37 1148.28C386.65 1148.85 385 1149.41 383.41 1149.94C380.28 1151.08 377.33 1151.73 374.78 1152.42C372.24 1153.13 370 1153.57 368.17 1153.87C366.48 1154.16 365.09 1154.4 363.95 1154.59C362.98 1154.74 362.47 1154.79 362.46 1154.74C362.45 1154.68 362.95 1154.53 363.89 1154.28C365.02 1154.01 366.38 1153.68 368.04 1153.28C369.85 1152.89 372.05 1152.37 374.56 1151.57C377.07 1150.81 379.98 1150.1 383.06 1148.89C384.62 1148.34 386.25 1147.75 387.94 1147.15C389.63 1146.53 391.33 1145.72 393.13 1144.98C396.74 1143.55 400.41 1141.61 404.32 1139.67C411.99 1135.52 420.13 1130.39 428.05 1124.17C435.91 1117.86 442.74 1111.09 448.52 1104.56C451.3 1101.2 454.02 1098.06 456.23 1094.86C457.36 1093.29 458.53 1091.82 459.52 1090.31C460.49 1088.8 461.43 1087.34 462.32 1085.95C464.19 1083.22 465.54 1080.54 466.86 1078.27C468.2 1076.01 469.2 1073.98 469.99 1072.31C470.76 1070.79 471.39 1069.53 471.91 1068.5C472.37 1067.63 472.63 1067.19 472.68 1067.21Z" />
					</g>
				</g>
				<g id="&lt;Group&gt;" style="opacity: 0.2">
					<g id="&lt;Group&gt;">
						<path id="&lt;Path&gt;" class="shp7" d="M371.27 1153.11C365.99 1151.6 363.25 1145.11 364.6 1139.78C365.95 1134.45 370.44 1130.39 375.39 1128.02C380.35 1125.64 385.83 1124.65 391.17 1123.35C414.34 1117.69 435.9 1105.6 452.8 1088.77C454.37 1087.21 456.6 1085.48 458.54 1086.54C461.15 1087.97 459.51 1091.95 457.58 1094.21C434.31 1121.35 403.53 1142 369.59 1153.24" />
					</g>
				</g>
				<g id="&lt;Group&gt;">
					<g id="&lt;Group&gt;">
						<path id="&lt;Path&gt;" class="shp5" d="M536.76 1119.01C536.66 1119.04 536.27 1117.94 535.66 1115.93C535.04 1113.92 534.21 1111 533.24 1107.37C531.28 1100.12 528.76 1090.06 526.25 1078.88C523.73 1067.7 521.7 1057.52 520.36 1050.14C519.7 1046.44 519.19 1043.45 518.89 1041.37C518.58 1039.29 518.46 1038.13 518.57 1038.11C518.67 1038.09 519 1039.21 519.48 1041.25C520.02 1043.63 520.68 1046.52 521.45 1049.92C523.15 1057.61 525.34 1067.55 527.77 1078.54C530.28 1089.51 532.55 1099.42 534.31 1107.1C535.07 1110.5 535.71 1113.4 536.25 1115.78C536.68 1117.83 536.87 1118.98 536.76 1119.01Z" />
					</g>
				</g>
				<g id="&lt;Group&gt;">
					<g id="&lt;Group&gt;">
						<path id="&lt;Path&gt;" class="shp5" d="M203.29 931.4C202.86 931.44 202.24 928.24 201.9 924.26C201.57 920.28 201.64 917.02 202.07 916.98C202.5 916.95 203.12 920.15 203.46 924.13C203.8 928.11 203.72 931.37 203.29 931.4Z" />
					</g>
				</g>
				<g id="&lt;Group&gt;">
					<g id="&lt;Group&gt;">
						<path id="&lt;Path&gt;" class="shp5" d="M217.15 931.84C216.72 931.86 216.2 928.46 215.98 924.24C215.77 920.01 215.94 916.57 216.37 916.55C216.8 916.53 217.33 919.93 217.54 924.16C217.76 928.38 217.58 931.82 217.15 931.84Z" />
					</g>
				</g>
				<g id="&lt;Group&gt;">
					<g id="&lt;Group&gt;">
						<path id="&lt;Path&gt;" class="shp5" d="M230.93 930.95C230.5 930.98 229.94 927.19 229.67 922.49C229.41 917.78 229.55 913.95 229.98 913.93C230.41 913.9 230.97 917.7 231.23 922.4C231.5 927.1 231.36 930.93 230.93 930.95Z" />
					</g>
				</g>
				<g id="&lt;Group&gt;">
					<g id="&lt;Group&gt;">
						<path id="&lt;Path&gt;" class="shp5" d="M257.57 1076.8C257.14 1076.76 257.37 1071.15 258.08 1064.28C258.79 1057.4 259.71 1051.86 260.14 1051.91C260.57 1051.95 260.34 1057.56 259.63 1064.44C258.92 1071.31 258 1076.85 257.57 1076.8Z" />
					</g>
				</g>
				<g id="&lt;Group&gt;">
					<g id="&lt;Group&gt;">
						<path id="&lt;Path&gt;" class="shp5" d="M594.41 1300.37C594.83 1300.3 595.78 1303.7 596.51 1307.96C597.25 1312.23 597.5 1315.75 597.08 1315.83C596.65 1315.9 595.71 1312.5 594.97 1308.23C594.24 1303.96 593.98 1300.44 594.41 1300.37Z" />
					</g>
				</g>
				<g id="&lt;Group&gt;">
					<g id="&lt;Group&gt;">
						<path id="&lt;Path&gt;" class="shp5" d="M612.32 1300.36C612.75 1300.29 613.61 1303.37 614.26 1307.24C614.9 1311.12 615.08 1314.31 614.65 1314.38C614.23 1314.45 613.36 1311.37 612.72 1307.5C612.07 1303.63 611.9 1300.43 612.32 1300.36Z" />
					</g>
				</g>
				<g id="&lt;Group&gt;">
					<g id="&lt;Group&gt;">
						<path id="&lt;Path&gt;" class="shp5" d="M629.32 1298.63C629.75 1298.6 630.37 1302.11 631.11 1306.41C631.83 1310.72 632.39 1314.24 631.96 1314.35C631.56 1314.46 630.3 1311.06 629.56 1306.67C628.82 1302.29 628.89 1298.66 629.32 1298.63Z" />
					</g>
				</g>
				<g id="&lt;Group&gt;">
					<g id="&lt;Group&gt;">
						<path id="&lt;Path&gt;" class="shp5" d="M563.73 969.34C563.73 969.63 559.93 969.4 554.02 970.63C548.16 971.82 540.15 974.86 533.24 980.89C526.32 986.93 522.23 994.45 520.26 1000.1C518.24 1005.78 517.95 1009.58 517.66 1009.54C517.57 1009.53 517.54 1008.58 517.71 1006.87C517.88 1005.16 518.31 1002.7 519.21 999.75C520.96 993.88 525.03 985.98 532.21 979.71C539.39 973.45 547.76 970.48 553.82 969.55C556.86 969.06 559.36 968.96 561.08 969.03C562.79 969.09 563.73 969.24 563.73 969.34Z" />
					</g>
				</g>
				<g id="&lt;Group&gt;">
					<g id="&lt;Group&gt;">
						<path id="&lt;Path&gt;" class="shp3" d="M586.13 1030.92C586.2 1031.12 582.76 1032.61 577.09 1034.75C571.43 1036.9 563.52 1039.67 554.7 1042.42C545.87 1045.18 537.79 1047.4 531.91 1048.86C526.03 1050.32 522.35 1051.05 522.3 1050.85C522.25 1050.64 525.83 1049.53 531.62 1047.79C537.85 1045.91 545.63 1043.54 554.23 1040.93C562.79 1038.18 570.53 1035.7 576.73 1033.71C582.48 1031.84 586.05 1030.71 586.13 1030.92Z" />
					</g>
				</g>
				<g id="&lt;Group&gt;">
					<g id="&lt;Group&gt;">
						<path id="&lt;Path&gt;" class="shp3" d="M609.23 1135.35C609.27 1135.56 605.68 1136.52 599.84 1137.89C593.99 1139.27 585.9 1141.07 576.95 1142.96C567.99 1144.85 559.87 1146.48 553.96 1147.58C548.06 1148.68 544.39 1149.25 544.34 1149.04C544.29 1148.83 547.88 1147.88 553.72 1146.5C559.56 1145.12 567.66 1143.32 576.63 1141.43C585.59 1139.54 593.72 1137.91 599.62 1136.81C605.52 1135.71 609.19 1135.13 609.23 1135.35Z" />
					</g>
				</g>
				<g id="&lt;Group&gt;">
					<g id="&lt;Group&gt;">
						<path id="&lt;Path&gt;" class="shp3" d="M635.43 1266.06C635.42 1266.29 631.98 1266.38 626.43 1266.52C620.88 1266.67 613.21 1266.9 604.76 1267.39C596.3 1267.88 588.66 1268.52 583.13 1269.02C577.6 1269.51 574.17 1269.81 574.14 1269.59C574.11 1269.38 577.49 1268.69 583 1267.92C588.52 1267.14 596.18 1266.32 604.67 1265.83C613.16 1265.34 620.86 1265.28 626.43 1265.42C632 1265.56 635.43 1265.86 635.43 1266.06Z" />
					</g>
				</g>
				<g id="&lt;Group&gt;">
					<g id="&lt;Group&gt;">
						<path id="&lt;Path&gt;" class="shp3" d="M394.99 1143.17C394.89 1143.37 392.53 1142.31 388.76 1140.52C384.45 1138.46 379.52 1136.1 374.08 1133.49C368.61 1130.92 363.67 1128.59 359.34 1126.55C355.58 1124.76 353.27 1123.6 353.35 1123.4C353.43 1123.2 355.89 1124.01 359.78 1125.54C363.67 1127.07 368.98 1129.34 374.75 1132.08C380.51 1134.82 385.62 1137.49 389.27 1139.54C392.91 1141.59 395.09 1142.99 394.99 1143.17Z" />
					</g>
				</g>
				<g id="&lt;Group&gt;">
					<g id="&lt;Group&gt;">
						<path id="&lt;Path&gt;" class="shp3" d="M515.72 1163.66C515.68 1163.75 514.42 1163.27 512.18 1162.31C509.66 1161.21 506.5 1159.84 502.74 1158.2C494.78 1154.72 483.75 1149.99 471.45 1145.06C459.14 1140.14 447.88 1135.96 439.72 1133C435.87 1131.59 432.63 1130.41 430.05 1129.47C427.77 1128.62 426.52 1128.1 426.55 1128C426.59 1127.89 427.9 1128.22 430.24 1128.89C432.58 1129.55 435.94 1130.6 440.08 1131.95C448.35 1134.66 459.69 1138.68 472.03 1143.61C484.36 1148.55 495.35 1153.45 503.2 1157.2C507.13 1159.07 510.29 1160.63 512.44 1161.76C514.6 1162.89 515.77 1163.56 515.72 1163.66Z" />
					</g>
				</g>
				<g id="&lt;Group&gt;">
					<g id="&lt;Group&gt;">
						<path id="&lt;Path&gt;" class="shp3" d="M525.13 1078.41C525.12 1078.47 524.54 1078.42 523.44 1078.27C522.17 1078.08 520.58 1077.84 518.64 1077.55C514.27 1076.84 508.32 1075.88 501.05 1074.7C486.2 1072.28 465.68 1068.99 442.97 1065.65C420.25 1062.31 399.65 1059.54 384.73 1057.59C377.44 1056.62 371.45 1055.83 367.07 1055.25C365.12 1054.97 363.54 1054.74 362.27 1054.56C361.17 1054.38 360.6 1054.26 360.61 1054.21C360.61 1054.16 361.2 1054.17 362.3 1054.24C363.58 1054.35 365.18 1054.48 367.14 1054.65C371.33 1055.02 377.39 1055.65 384.87 1056.49C399.83 1058.17 420.46 1060.76 443.2 1064.1C465.92 1067.45 486.43 1070.91 501.24 1073.61C508.64 1074.96 514.63 1076.11 518.75 1076.95C520.67 1077.36 522.24 1077.69 523.49 1077.96C524.57 1078.21 525.14 1078.36 525.13 1078.41Z" />
					</g>
				</g>
				<g id="&lt;Group&gt;">
					<g id="&lt;Group&gt;">
						<path id="&lt;Path&gt;" class="shp3" d="M518.34 988.38C518.27 988.81 485.81 984.31 445.84 978.34C405.86 972.36 373.5 967.18 373.57 966.75C373.63 966.32 406.09 970.82 446.07 976.79C486.04 982.77 518.4 987.95 518.34 988.38Z" />
					</g>
				</g>
				<g id="&lt;Group&gt;">
					<g id="&lt;Group&gt;">
						<path id="&lt;Path&gt;" class="shp3" d="M348.29 1067.12C348.09 1067.2 346.38 1063.46 343.68 1057.37C340.81 1050.91 337.17 1042.71 333.14 1033.63C329.02 1024.59 325.3 1016.42 322.36 1009.99C319.6 1003.94 317.93 1000.17 318.13 1000.07C318.22 1000.03 318.77 1000.9 319.68 1002.53C320.59 1004.16 321.85 1006.54 323.36 1009.51C326.38 1015.44 330.39 1023.72 334.56 1032.99C338.73 1042.26 342.27 1050.75 344.7 1056.95C345.92 1060.05 346.87 1062.57 347.48 1064.33C348.1 1066.09 348.39 1067.08 348.29 1067.12Z" />
					</g>
				</g>
				<g id="&lt;Group&gt;">
					<g id="&lt;Group&gt;">
						<path id="&lt;Path&gt;" class="shp3" d="M283.67 1130.36C283.25 1130.45 279.11 1112.33 274.43 1089.9C269.75 1067.46 266.3 1049.21 266.73 1049.12C267.15 1049.03 271.28 1067.14 275.96 1089.58C280.64 1112.02 284.09 1130.28 283.67 1130.36Z" />
					</g>
				</g>
				<g id="&lt;Group&gt;">
					<g id="&lt;Group&gt;">
						<path id="&lt;Path&gt;" class="shp3" d="M256.96 1031.93C257.05 1032.35 244.46 1035.41 228.84 1038.75C213.22 1042.1 200.48 1044.47 200.39 1044.05C200.3 1043.63 212.89 1040.57 228.52 1037.22C244.14 1033.88 256.87 1031.51 256.96 1031.93Z" />
					</g>
				</g>
				<g id="&lt;Group&gt;">
					<g id="&lt;Group&gt;">
						<path id="&lt;Path&gt;" class="shp3" d="M247.56 949.89C247.59 950.1 244.76 950.73 240.16 951.51C235.56 952.3 229.17 953.22 222.1 954.03C215.02 954.83 208.59 955.36 203.92 955.63C199.26 955.9 196.37 955.92 196.35 955.71C196.34 955.49 199.2 955.08 203.83 954.53C209.02 953.94 215.15 953.24 221.92 952.47C228.69 951.7 234.82 951.01 240.01 950.42C244.64 949.92 247.52 949.68 247.56 949.89Z" />
					</g>
				</g>
			</g>
			<g id="&lt;Group&gt;">
				<g id="&lt;Group&gt;">
					<g id="&lt;Group&gt;">
						<path id="&lt;Path&gt;" class="shp2" d="M271.94 807.39C272.52 808.51 280.31 847.68 295.33 924.88L242.21 927.36L221.64 827.78L271.94 807.39Z" />
					</g>
					<g id="&lt;Group&gt;">
						<path id="&lt;Path&gt;" class="shp5" d="M295.33 924.88L301.41 922.31L278.43 808.16L271.22 807.68L295.33 924.88Z" />
					</g>
					<g id="&lt;Group&gt;">
						<path id="&lt;Path&gt;" class="shp5" d="M250.59 832.7C250.78 834.21 249.7 835.58 248.19 835.77C246.69 835.95 245.31 834.88 245.13 833.37C244.94 831.86 246.01 830.49 247.52 830.3C249.03 830.12 250.4 831.19 250.59 832.7Z" />
					</g>
				</g>
				<g id="&lt;Group&gt;">
					<path id="&lt;Path&gt;" class="shp6" d="M237.63 913.99L236.84 898.83L259.53 889.48L250.68 868.46C246.37 858.66 234.61 854.64 225.19 859.74C222.16 861.39 218.97 863.12 216.09 864.68C209.61 868.21 204.89 874.3 203.18 881.47C200.22 893.85 197.63 919.67 197.91 918.51" />
				</g>
			</g>
			<g id="&lt;Group&gt;">
				<g id="&lt;Group&gt;">
					<path id="&lt;Path&gt;" class="shp4" d="M178.89 1300.05C116.66 1317.27 84.29 1326.32 81.79 1327.2C76.17 1329.18 77.11 1349.79 85.87 1349.47C90.01 1349.31 157.57 1351.98 166.1 1351.45C171.8 1351.09 183.23 1347.53 200.4 1340.76L178.89 1300.05Z" />
				</g>
				<g id="&lt;Group&gt;">
					<g id="&lt;Group&gt;">
						<path id="&lt;Path&gt;" class="shp5" d="M140 1335.67C139.53 1335.73 138.9 1330.79 135.89 1325.65C132.95 1320.45 128.99 1317.43 129.29 1317.05C129.45 1316.69 134.09 1319.32 137.24 1324.87C140.45 1330.38 140.39 1335.71 140 1335.67Z" />
					</g>
				</g>
				<g id="&lt;Group&gt;">
					<g id="&lt;Group&gt;">
						<path id="&lt;Path&gt;" class="shp5" d="M149.73 1331.25C149.28 1331.33 148.33 1326.92 145.84 1322.04C143.41 1317.14 140.43 1313.75 140.76 1313.44C141.02 1313.13 144.67 1316.18 147.24 1321.34C149.85 1326.48 150.13 1331.23 149.73 1331.25Z" />
					</g>
				</g>
				<g id="&lt;Group&gt;">
					<g id="&lt;Group&gt;">
						<path id="&lt;Path&gt;" class="shp5" d="M158.86 1328.81C158.39 1328.78 158.75 1324.12 156.68 1318.95C154.7 1313.74 151.27 1310.56 151.6 1310.22C151.78 1309.86 155.97 1312.75 158.13 1318.38C160.36 1323.98 159.24 1328.94 158.86 1328.81Z" />
					</g>
				</g>
				<g id="&lt;Group&gt;">
					<g id="&lt;Group&gt;">
						<path id="&lt;Path&gt;" class="shp5" d="M157.21 1316.75C157.04 1316.79 156.21 1314.19 156.2 1309.81C156.21 1307.62 156.46 1305.01 157.15 1302.19C157.49 1300.78 157.95 1299.33 158.54 1297.86C158.84 1297.12 159.19 1296.27 160.03 1295.57C160.91 1294.79 162.49 1294.95 163.24 1295.73C164.1 1296.48 164.37 1297.53 164.48 1298.37C164.58 1299.23 164.63 1300.03 164.61 1300.84C164.58 1302.44 164.38 1303.98 164.03 1305.41C163.34 1308.26 162.23 1310.65 161.16 1312.54C158.98 1316.33 157.1 1318.27 156.96 1318.16C156.75 1318.01 158.31 1315.84 160.18 1312.03C161.09 1310.13 162.05 1307.79 162.63 1305.09C162.91 1303.75 163.07 1302.31 163.08 1300.83C163.03 1299.39 163.05 1297.6 162.22 1296.91C161.77 1296.54 161.37 1296.52 160.98 1296.81C160.57 1297.12 160.22 1297.76 159.96 1298.44C159.38 1299.83 158.91 1301.21 158.54 1302.56C157.81 1305.24 157.45 1307.74 157.31 1309.85C157.04 1314.07 157.46 1316.71 157.21 1316.75Z" />
					</g>
				</g>
				<g id="&lt;Group&gt;">
					<g id="&lt;Group&gt;">
						<path id="&lt;Path&gt;" class="shp5" d="M157.32 1315.8C157.28 1315.63 159.53 1314.86 163.34 1314.83C165.24 1314.83 167.52 1315.03 169.97 1315.64C171.18 1315.97 172.47 1316.28 173.78 1317.05C175.06 1317.7 176.4 1319.47 175.89 1321.31C175.49 1323.05 174 1324.26 172.53 1324.65C171.04 1325.06 169.6 1324.91 168.34 1324.63C165.78 1324.05 163.79 1322.78 162.28 1321.65C159.28 1319.31 157.82 1317.51 157.94 1317.38C158.1 1317.18 159.87 1318.72 162.91 1320.75C164.44 1321.72 166.35 1322.78 168.63 1323.22C169.77 1323.44 170.99 1323.51 172.1 1323.18C173.19 1322.87 174.11 1322.04 174.37 1320.96C174.64 1319.91 174 1318.96 172.98 1318.35C171.98 1317.73 170.74 1317.38 169.6 1317.03C167.29 1316.37 165.13 1316.07 163.31 1315.93C159.65 1315.68 157.36 1316.05 157.32 1315.8Z" />
					</g>
				</g>
				<g id="&lt;Group&gt;">
					<g id="&lt;Group&gt;">
						<path id="&lt;Path&gt;" class="shp5" d="M125.66 1336.67C125.2 1336.61 125.65 1332.62 123.82 1328.25C122.07 1323.83 118.95 1321.3 119.25 1320.94C119.4 1320.56 123.3 1322.77 125.26 1327.66C127.28 1332.52 126.03 1336.83 125.66 1336.67Z" />
					</g>
				</g>
				<g id="&lt;Group&gt;">
					<g id="&lt;Group&gt;">
						<path id="&lt;Path&gt;" class="shp5" d="M190.79 1340.98C190.83 1341.08 189.55 1341.67 187.18 1342.67C184.78 1343.58 181.27 1344.85 176.79 1345.89C167.87 1348.14 155.14 1349.42 141.15 1349.27C127.17 1349.12 114.56 1348.48 105.42 1348.12C101.09 1347.89 97.46 1347.69 94.6 1347.54C92.05 1347.37 90.64 1347.23 90.64 1347.12C90.64 1347.01 92.06 1346.95 94.62 1346.93C97.49 1346.95 101.12 1346.98 105.45 1347.01C114.91 1347.2 127.37 1347.44 141.16 1347.71C155.08 1347.86 167.66 1346.77 176.55 1344.82C185.47 1342.98 190.68 1340.69 190.79 1340.98Z" />
					</g>
				</g>
				<g id="&lt;Group&gt;">
					<g id="&lt;Group&gt;">
						<path id="&lt;Path&gt;" class="shp5" d="M193.55 1343.1C193.43 1343.32 190.87 1341.83 186.56 1339.94C182.3 1338.11 175.91 1335.92 168.9 1337C161.86 1338.08 156.87 1342.8 153.63 1346.08C150.35 1349.48 148.44 1351.74 148.25 1351.58C148.11 1351.46 149.7 1348.98 152.81 1345.33C154.39 1343.53 156.39 1341.44 159 1339.54C161.59 1337.64 164.92 1336.03 168.65 1335.46C176.17 1334.3 182.8 1336.82 187.03 1338.93C191.31 1341.13 193.65 1342.95 193.55 1343.1Z" />
					</g>
				</g>
			</g>
			<g id="&lt;Group&gt;">
				<g id="&lt;Group&gt;">
					<path id="&lt;Path&gt;" class="shp4" d="M277.97 1274.28C336.86 1312.83 367.36 1332.91 369.48 1334.51C374.23 1338.1 368.78 1355.22 360.54 1352.25C356.64 1350.85 282.51 1330.23 274.54 1327.13C269.23 1325.06 259.42 1318.2 245.12 1306.54L277.97 1274.28Z" />
				</g>
				<g id="&lt;Group&gt;">
					<g id="&lt;Group&gt;">
						<path id="&lt;Path&gt;" class="shp5" d="M304.21 1320.02C303.82 1319.94 305.39 1314.84 310.12 1310.57C314.8 1306.25 320.02 1305.15 320.07 1305.54C320.23 1305.98 315.55 1307.67 311.17 1311.72C306.73 1315.71 304.63 1320.23 304.21 1320.02Z" />
					</g>
				</g>
				<g id="&lt;Group&gt;">
					<g id="&lt;Group&gt;">
						<path id="&lt;Path&gt;" class="shp5" d="M296.27 1312.86C295.9 1312.72 297.61 1308.28 301.66 1304.17C305.68 1300.04 310.08 1298.24 310.23 1298.61C310.46 1299.02 306.59 1301.34 302.78 1305.27C298.93 1309.16 296.69 1313.08 296.27 1312.86Z" />
					</g>
				</g>
				<g id="&lt;Group&gt;">
					<g id="&lt;Group&gt;">
						<path id="&lt;Path&gt;" class="shp5" d="M288.32 1307.76C287.92 1307.77 288.36 1302.71 292.18 1298.04C295.95 1293.34 300.82 1291.86 300.89 1292.25C301.1 1292.68 296.86 1294.67 293.39 1299.03C289.85 1303.32 288.78 1307.87 288.32 1307.76Z" />
					</g>
				</g>
				<g id="&lt;Group&gt;">
					<g id="&lt;Group&gt;">
						<path id="&lt;Path&gt;" class="shp5" d="M293.56 1296.77C293.33 1296.66 294.53 1294.27 295.56 1290.16C296.06 1288.11 296.48 1285.62 296.6 1282.84C296.66 1281.45 296.63 1279.99 296.5 1278.49C296.45 1277.76 296.32 1277.05 296.02 1276.62C295.74 1276.23 295.35 1276.13 294.81 1276.35C293.8 1276.75 293.28 1278.47 292.8 1279.82C292.35 1281.23 292.07 1282.65 291.94 1284.02C291.66 1286.76 291.87 1289.28 292.16 1291.37C292.78 1295.57 293.61 1298.12 293.36 1298.19C293.2 1298.25 292 1295.83 291.07 1291.56C290.63 1289.43 290.29 1286.82 290.5 1283.89C290.61 1282.43 290.88 1280.9 291.34 1279.36C291.57 1278.59 291.86 1277.84 292.21 1277.05C292.57 1276.28 293.15 1275.36 294.19 1274.91C295.14 1274.4 296.7 1274.73 297.3 1275.74C297.89 1276.66 297.96 1277.57 298.03 1278.37C298.14 1279.95 298.14 1281.47 298.03 1282.92C297.83 1285.82 297.28 1288.38 296.62 1290.46C295.28 1294.63 293.7 1296.86 293.56 1296.77Z" />
					</g>
				</g>
				<g id="&lt;Group&gt;">
					<g id="&lt;Group&gt;">
						<path id="&lt;Path&gt;" class="shp5" d="M293.74 1295.83C293.62 1296.06 291.55 1295.01 288 1294.14C286.22 1293.72 284.07 1293.35 281.67 1293.28C280.47 1293.26 279.18 1293.22 278.04 1293.51C276.88 1293.78 275.99 1294.49 275.93 1295.57C275.85 1296.68 276.47 1297.75 277.42 1298.37C278.37 1299.03 279.56 1299.33 280.7 1299.47C283.01 1299.74 285.16 1299.32 286.91 1298.85C290.43 1297.84 292.58 1296.91 292.67 1297.15C292.74 1297.31 290.8 1298.58 287.24 1299.9C285.46 1300.52 283.18 1301.12 280.56 1300.9C279.27 1300.78 277.85 1300.49 276.56 1299.64C275.27 1298.83 274.23 1297.22 274.37 1295.45C274.45 1293.54 276.26 1292.25 277.68 1292.02C279.15 1291.69 280.49 1291.79 281.74 1291.84C284.26 1292 286.49 1292.5 288.29 1293.08C291.92 1294.26 293.83 1295.68 293.74 1295.83Z" />
					</g>
				</g>
				<g id="&lt;Group&gt;">
					<g id="&lt;Group&gt;">
						<path id="&lt;Path&gt;" class="shp5" d="M349.28 1349.03C349.18 1349.16 347.79 1348.13 347.12 1345.6C346.38 1343.13 346.84 1339.34 348.77 1336.02C349.7 1334.34 350.76 1332.89 351.73 1331.61C352.7 1330.32 353.7 1329.16 354.73 1328.39C355.75 1327.59 356.82 1327.23 357.55 1327.21C358.29 1327.18 358.67 1327.36 358.66 1327.45C358.66 1327.69 357.08 1327.57 355.45 1329.23C354.62 1330.02 353.79 1331.13 352.9 1332.45C351.99 1333.77 351.01 1335.2 350.14 1336.77C348.35 1339.88 347.82 1343.1 348.2 1345.38C348.52 1347.67 349.49 1348.87 349.28 1349.03Z" />
					</g>
				</g>
				<g id="&lt;Group&gt;">
					<g id="&lt;Group&gt;">
						<path id="&lt;Path&gt;" class="shp5" d="M317.57 1325.33C317.16 1325.37 317.28 1320.89 320.68 1316.87C324.03 1312.81 328.42 1311.88 328.45 1312.29C328.62 1312.73 324.89 1314.19 321.88 1317.87C318.8 1321.48 318.02 1325.42 317.57 1325.33Z" />
					</g>
				</g>
				<g id="&lt;Group&gt;">
					<g id="&lt;Group&gt;">
						<path id="&lt;Path&gt;" class="shp5" d="M254.2 1309.65C254.28 1309.56 255.63 1310.56 258.08 1312.32C260.57 1314.04 264.22 1316.45 268.97 1318.99C273.73 1321.54 279.59 1324.19 286.27 1326.69C292.96 1329.19 300.46 1331.54 308.4 1333.84C324.29 1338.42 338.68 1342.6 349.06 1345.72C354.04 1347.25 358.17 1348.52 361.33 1349.49C364.22 1350.41 365.8 1350.97 365.77 1351.08C365.75 1351.18 364.11 1350.82 361.17 1350.07C357.97 1349.23 353.79 1348.12 348.75 1346.78C338.29 1343.93 323.87 1339.92 307.96 1335.34C300.01 1333.03 292.48 1330.63 285.76 1328.04C279.05 1325.44 273.17 1322.66 268.44 1319.96C263.7 1317.26 260.11 1314.69 257.72 1312.81C255.36 1310.88 254.14 1309.73 254.2 1309.65Z" />
					</g>
				</g>
				<g id="&lt;Group&gt;">
					<g id="&lt;Group&gt;">
						<path id="&lt;Path&gt;" class="shp8" d="M250.93 1310.84C250.88 1310.67 253.66 1309.64 258.41 1308.85C263.07 1308.12 270.16 1307.74 276.98 1311.12C280.35 1312.8 283.04 1315.35 284.92 1317.94C286.84 1320.54 288.11 1323.14 289.06 1325.34C290.92 1329.76 291.69 1332.61 291.52 1332.68C291.29 1332.77 290.15 1330.04 288.06 1325.81C285.96 1321.69 282.65 1315.68 276.27 1312.52C269.92 1309.35 263.17 1309.5 258.55 1309.95C253.87 1310.44 250.98 1311.09 250.93 1310.84Z" />
					</g>
				</g>
			</g>
			<g id="&lt;Group&gt;">
				<g id="&lt;Group&gt;">
					<g id="&lt;Group&gt;">
						<g id="&lt;Group&gt;">
							<g id="&lt;Group&gt;">
								<g id="&lt;Group&gt;">
									<g id="&lt;Group&gt;">
										<g id="&lt;Group&gt;">
											<g id="&lt;Group&gt;">
												<g id="&lt;Group&gt;">
													<g id="&lt;Group&gt;">
														<g id="&lt;Group&gt;">
															<g id="&lt;Group&gt;">
																<path id="&lt;Path&gt;" class="shp6" d="M484.98 816.06L490.74 932.73C491.73 952.57 475.9 969.19 456.04 969.19C437.5 969.19 422.22 954.62 421.33 936.11C420.9 927.32 420.53 920 420.43 919.1C400.53 918.21 389.39 908.01 386.99 888.48C385.25 874.33 384.05 844.88 383.26 818.23C382.42 789.6 403.74 765.15 432.2 762.01L435.03 761.69C465.74 760.11 484.25 785.31 484.98 816.06Z" />
															</g>
														</g>
													</g>
												</g>
											</g>
										</g>
									</g>
									<g id="&lt;Group&gt;">
										<g id="&lt;Group&gt;">
											<g id="&lt;Group&gt;">
												<g id="&lt;Group&gt;">
													<g id="&lt;Group&gt;">
														<g id="&lt;Group&gt;">
															<g id="&lt;Group&gt;">
																<path id="&lt;Path&gt;" class="shp6" d="M420.33 918.68C432.8 918.32 445.15 913.3 457.37 903.6C452.9 918.33 440.81 925.9 421.1 926.29L420.33 918.68Z" />
															</g>
														</g>
													</g>
												</g>
											</g>
										</g>
									</g>
								</g>
							</g>
						</g>
						<g id="&lt;Group&gt;">
							<g id="&lt;Group&gt;">
								<g id="&lt;Group&gt;">
									<g id="&lt;Group&gt;">
										<g id="&lt;Group&gt;">
											<g id="&lt;Group&gt;">
												<g id="&lt;Group&gt;">
													<g id="&lt;Group&gt;">
														<g id="&lt;Group&gt;">
															<g id="&lt;Group&gt;">
																<g id="&lt;Group&gt;">
																	<g id="&lt;Group&gt;">
																		<g id="&lt;Group&gt;">
																			<path id="&lt;Path&gt;" class="shp5" d="M392.58 836.54C392.75 838.76 394.77 840.45 397.09 840.32C399.41 840.19 401.16 838.29 400.99 836.06C400.82 833.84 398.81 832.15 396.49 832.28C394.17 832.41 392.42 834.32 392.58 836.54Z" />
																		</g>
																	</g>
																</g>
															</g>
														</g>
													</g>
												</g>
												<g id="&lt;Group&gt;">
													<g id="&lt;Group&gt;">
														<g id="&lt;Group&gt;">
															<g id="&lt;Group&gt;">
																<g id="&lt;Group&gt;">
																	<g id="&lt;Group&gt;">
																		<g id="&lt;Group&gt;">
																			<g id="&lt;Group&gt;">
																				<path id="&lt;Path&gt;" class="shp5" d="M391.15 831.93C391.73 832.42 394.64 829.72 399.15 829.23C403.65 828.68 407.21 830.64 407.64 830.03C407.86 829.76 407.22 828.83 405.66 827.94C404.13 827.06 401.6 826.31 398.79 826.63C395.99 826.95 393.74 828.25 392.5 829.46C391.23 830.67 390.87 831.71 391.15 831.93Z" />
																			</g>
																		</g>
																	</g>
																</g>
															</g>
														</g>
													</g>
												</g>
											</g>
											<g id="&lt;Group&gt;">
												<g id="&lt;Group&gt;">
													<g id="&lt;Group&gt;">
														<g id="&lt;Group&gt;">
															<g id="&lt;Group&gt;">
																<g id="&lt;Group&gt;">
																	<g id="&lt;Group&gt;">
																		<g id="&lt;Group&gt;">
																			<path id="&lt;Path&gt;" class="shp5" d="M436.84 832.73C437.01 834.95 439.03 836.64 441.35 836.51C443.67 836.38 445.42 834.47 445.25 832.25C445.08 830.03 443.07 828.34 440.75 828.47C438.43 828.6 436.68 830.51 436.84 832.73Z" />
																		</g>
																	</g>
																</g>
															</g>
														</g>
													</g>
												</g>
												<g id="&lt;Group&gt;">
													<g id="&lt;Group&gt;">
														<g id="&lt;Group&gt;">
															<g id="&lt;Group&gt;">
																<g id="&lt;Group&gt;">
																	<g id="&lt;Group&gt;">
																		<g id="&lt;Group&gt;">
																			<g id="&lt;Group&gt;">
																				<path id="&lt;Path&gt;" class="shp5" d="M435.55 827.88C436.13 828.37 439.05 825.67 443.55 825.19C448.05 824.64 451.61 826.59 452.04 825.99C452.26 825.72 451.62 824.79 450.06 823.9C448.53 823.01 446 822.26 443.19 822.58C440.39 822.91 438.14 824.2 436.9 825.41C435.63 826.63 435.27 827.67 435.55 827.88Z" />
																			</g>
																		</g>
																	</g>
																</g>
															</g>
														</g>
													</g>
												</g>
											</g>
											<g id="&lt;Group&gt;">
												<g id="&lt;Group&gt;">
													<g id="&lt;Group&gt;">
														<g id="&lt;Group&gt;">
															<g id="&lt;Group&gt;">
																<g id="&lt;Group&gt;">
																	<g id="&lt;Group&gt;">
																		<g id="&lt;Group&gt;">
																			<path id="&lt;Path&gt;" class="shp5" d="M422.88 863.11C422.87 862.86 420.02 862.68 415.41 862.6C414.25 862.61 413.13 862.5 412.85 861.74C412.49 860.93 412.83 859.64 413.24 858.24C414.02 855.34 414.83 852.29 415.68 849.1C419.03 836.1 421.32 825.46 420.8 825.33C420.27 825.2 417.13 835.63 413.78 848.63C412.98 851.83 412.22 854.89 411.49 857.81C411.2 859.16 410.62 860.73 411.39 862.39C411.8 863.22 412.71 863.75 413.47 863.87C414.23 864.01 414.88 863.95 415.46 863.92C420.05 863.66 422.89 863.37 422.88 863.11Z" />
																		</g>
																	</g>
																</g>
															</g>
														</g>
													</g>
												</g>
											</g>
											<g id="&lt;Group&gt;">
												<g id="&lt;Group&gt;">
													<g id="&lt;Group&gt;">
														<g id="&lt;Group&gt;">
															<g id="&lt;Group&gt;">
																<g id="&lt;Group&gt;">
																	<g id="&lt;Group&gt;">
																		<g id="&lt;Group&gt;">
																			<path id="&lt;Path&gt;" class="shp5" d="M436.49 864.77C435.75 864.81 436.28 869.7 432.48 873.64C428.68 877.58 423.4 877.61 423.44 878.29C423.41 878.61 424.71 879.12 426.91 878.93C429.08 878.77 432.16 877.73 434.49 875.32C436.81 872.91 437.59 869.95 437.54 867.92C437.5 865.86 436.82 864.7 436.49 864.77Z" />
																		</g>
																	</g>
																</g>
															</g>
														</g>
													</g>
												</g>
											</g>
										</g>
									</g>
								</g>
								<g id="&lt;Group&gt;">
									<g id="&lt;Group&gt;">
										<g id="&lt;Group&gt;">
											<g id="&lt;Group&gt;">
												<g id="&lt;Group&gt;">
													<g id="&lt;Group&gt;">
														<g id="&lt;Group&gt;">
															<path id="&lt;Path&gt;" class="shp5" d="M432.44 810.35C433.02 811.52 437.45 810.45 442.81 810.5C448.17 810.45 452.61 811.52 453.19 810.35C453.44 809.79 452.57 808.72 450.72 807.72C448.88 806.72 446.03 805.9 442.81 805.9C439.6 805.9 436.75 806.72 434.91 807.72C433.05 808.72 432.18 809.79 432.44 810.35Z" />
														</g>
													</g>
												</g>
											</g>
										</g>
									</g>
								</g>
								<g id="&lt;Group&gt;">
									<g id="&lt;Group&gt;">
										<g id="&lt;Group&gt;">
											<g id="&lt;Group&gt;">
												<g id="&lt;Group&gt;">
													<g id="&lt;Group&gt;">
														<g id="&lt;Group&gt;">
															<path id="&lt;Path&gt;" class="shp5" d="M391.37 818.7C392.28 819.64 395.26 818.23 398.99 817.77C402.7 817.18 405.96 817.7 406.57 816.55C406.83 815.99 406.22 815.02 404.73 814.2C403.27 813.39 400.9 812.85 398.35 813.21C395.79 813.57 393.67 814.75 392.48 815.94C391.28 817.14 390.96 818.24 391.37 818.7Z" />
														</g>
													</g>
												</g>
											</g>
										</g>
									</g>
								</g>
							</g>
						</g>
						<g id="&lt;Group&gt;">
							<g id="&lt;Group&gt;">
								<g id="&lt;Group&gt;">
									<g id="&lt;Group&gt;">
										<g id="&lt;Group&gt;">
											<g id="&lt;Group&gt;">
												<g id="&lt;Group&gt;">
													<g id="&lt;Group&gt;">
														<path id="&lt;Path&gt;" class="shp6" d="M484.98 838.04C485.45 837.77 504.47 829.85 506.05 849.98C507.62 870.1 487.09 867.53 487.01 866.95C486.96 866.57 486.28 856.93 484.98 838.04Z" />
													</g>
												</g>
											</g>
										</g>
									</g>
								</g>
							</g>
							<g id="&lt;Group&gt;">
								<g id="&lt;Group&gt;">
									<g id="&lt;Group&gt;">
										<g id="&lt;Group&gt;">
											<g id="&lt;Group&gt;">
												<g id="&lt;Group&gt;">
													<g id="&lt;Group&gt;">
														<g id="&lt;Group&gt;">
															<path id="&lt;Path&gt;" class="shp9" d="M492.56 858.85C492.64 858.78 492.93 859.07 493.55 859.29C494.14 859.51 495.15 859.62 496.17 859.14C498.23 858.2 499.76 854.68 499.58 851.05C499.48 849.21 498.96 847.5 498.2 846.1C497.47 844.68 496.44 843.73 495.36 843.62C494.27 843.46 493.56 844.16 493.36 844.74C493.14 845.33 493.3 845.72 493.19 845.76C493.14 845.81 492.73 845.46 492.83 844.61C492.88 844.21 493.08 843.71 493.52 843.29C493.98 842.86 494.67 842.6 495.42 842.63C496.98 842.61 498.49 843.93 499.33 845.46C500.25 846.99 500.88 848.91 500.98 850.97C501.17 855.04 499.39 859 496.55 860.06C495.16 860.54 493.94 860.21 493.3 859.78C492.64 859.33 492.49 858.89 492.56 858.85Z" />
														</g>
													</g>
												</g>
											</g>
										</g>
									</g>
								</g>
							</g>
						</g>
					</g>
				</g>
				<g id="&lt;Group&gt;">
					<g id="&lt;Group&gt;">
						<g id="&lt;Group&gt;">
							<path id="&lt;Path&gt;" class="shp5" d="M496.06 836.13C492.92 835.73 487.94 839.13 486.95 842.14C485.96 845.15 486.04 848.42 485.05 851.43C484.07 854.44 481.41 857.36 478.27 856.97C476.11 856.7 474.38 854.89 473.59 852.85C472.8 850.82 472.78 848.58 472.82 846.39C472.96 836.9 473.91 827.39 473.25 817.92C472.58 808.45 470.16 798.8 464.32 791.31C458.48 783.82 448.73 778.91 439.41 780.71C433.23 781.9 427.87 785.78 421.78 787.33C414.55 789.17 406.5 787.43 400.67 782.78C400.18 782.38 398.81 781.61 396.57 780.47C396.52 779.98 396.51 775.74 397.99 774.03C409.03 761.32 430.81 755.71 447.48 758C464.16 760.29 480.63 770.07 489.29 784.51C497.95 798.94 498.21 820.32 496.06 836.13Z" />
						</g>
					</g>
				</g>
			</g>
			<g id="&lt;Group&gt;">
				<g id="&lt;Group&gt;">
					<path id="&lt;Path&gt;" class="shp10" d="M168.28 1298.97C312.7 1204.24 387.86 1155.89 393.77 1153.92C402.64 1150.96 424.08 1136.92 445.52 1142.83C466.95 1148.74 486.17 1167.96 495.78 1196.05C502.19 1214.78 505.64 1245.09 506.13 1286.97C494.8 1319.99 478.04 1339.95 455.87 1346.85C453.09 1347.71 450.19 1348.43 447.21 1349.02C406.6 1357.08 365.31 1338.41 342.59 1303.81L337.75 1296.45C243.28 1331.16 195.3 1348.27 193.82 1347.78L168.28 1298.97Z" />
				</g>
				<g id="&lt;Group&gt;">
					<path id="&lt;Path&gt;" class="shp10" d="M94.4 1133.22C76.74 1139.53 67.87 1152.59 67.79 1172.4C67.65 1210.34 105.98 1250.23 182.79 1292.06L336.12 1190.46L336.12 1179.79C204.54 1132.48 123.97 1116.96 94.4 1133.22Z" />
				</g>
				<g id="&lt;Group&gt;">
					<g id="&lt;Group&gt;">
						<path id="&lt;Path&gt;" class="shp2" d="M436.28 1259.86C436.02 1259.99 435.62 1260.17 435.09 1260.38C434.24 1260.72 433.06 1261.19 431.55 1261.79C428.35 1263.02 423.74 1264.8 417.81 1267.08C405.77 1271.62 388.38 1278.16 366.77 1286.31C345.09 1294.39 319.12 1304.01 289.99 1314.61C260.85 1325.2 228.56 1336.83 194.07 1348.51L193.44 1348.72L193.14 1348.13C187.72 1337.79 182.01 1326.88 176.21 1315.81C173.26 1310.17 170.32 1304.56 167.59 1299.33L167.25 1298.7L167.85 1298.31C232.9 1257.02 291.1 1220.08 333.1 1193.42C354.07 1180.19 370.99 1169.52 382.73 1162.11C388.55 1158.48 393.08 1155.65 396.21 1153.7C397.72 1152.78 398.89 1152.06 399.73 1151.54C400.26 1151.23 400.67 1151 400.96 1150.86C400.71 1151.05 400.33 1151.33 399.81 1151.67C398.99 1152.22 397.85 1152.98 396.37 1153.95C393.27 1155.97 388.79 1158.87 383.05 1162.61C371.36 1170.11 354.53 1180.92 333.67 1194.32C291.74 1221.09 233.64 1258.17 168.7 1299.62L168.97 1298.61C171.71 1303.84 174.64 1309.44 177.6 1315.09C183.39 1326.16 189.1 1337.07 194.51 1347.42L193.58 1347.04C228.05 1335.4 260.35 1323.82 289.52 1313.32C318.64 1302.72 344.65 1293.25 366.41 1285.33C388.09 1277.38 405.53 1270.98 417.62 1266.55C423.58 1264.38 428.23 1262.69 431.44 1261.52C432.98 1260.97 434.17 1260.55 435.04 1260.24C435.58 1260.06 436 1259.93 436.28 1259.86Z" />
					</g>
				</g>
				<g id="&lt;Group&gt;">
					<g id="&lt;Group&gt;">
						<path id="&lt;Path&gt;" class="shp2" d="M258.45 1241.78C258.39 1241.86 256.97 1240.89 254.46 1239.07C251.94 1237.25 248.36 1234.54 243.97 1231.15C235.19 1224.36 223.25 1214.75 210.4 1203.72C197.55 1192.68 186.24 1182.33 178.2 1174.68C174.19 1170.85 170.97 1167.72 168.79 1165.51C166.61 1163.31 165.44 1162.05 165.51 1161.97C165.58 1161.9 166.9 1163 169.21 1165.07C171.71 1167.33 175 1170.29 178.96 1173.87C187.17 1181.31 198.59 1191.51 211.42 1202.53C224.25 1213.55 236.06 1223.28 244.66 1230.28C248.79 1233.66 252.22 1236.45 254.83 1238.59C257.22 1240.56 258.52 1241.69 258.45 1241.78Z" />
					</g>
				</g>
				<g id="&lt;Group&gt;">
					<g id="&lt;Group&gt;">
						<path id="&lt;Path&gt;" class="shp2" d="M137.69 1154.5C137.63 1154.11 144.47 1153.45 152.46 1155.84C160.47 1158.17 165.85 1162.44 165.6 1162.73C165.34 1163.14 159.75 1159.58 152.02 1157.34C144.31 1155.02 137.68 1154.98 137.69 1154.5Z" />
					</g>
				</g>
				<g id="&lt;Group&gt;">
					<g id="&lt;Group&gt;">
						<path id="&lt;Path&gt;" class="shp2" d="M150.89 1145.53C151.03 1145.16 155.95 1147.32 159.98 1152.36C164.07 1157.37 165.14 1162.63 164.75 1162.69C164.31 1162.84 162.63 1158.07 158.77 1153.34C154.96 1148.57 150.65 1145.93 150.89 1145.53Z" />
					</g>
				</g>
				<g id="&lt;Group&gt;">
					<g id="&lt;Group&gt;">
						<path id="&lt;Path&gt;" class="shp5" d="M85.97 1325.75C85.89 1325.57 87.8 1325.2 89.92 1326.94C92.01 1328.61 93.79 1331.95 94.36 1335.84C94.93 1339.77 94.06 1343.37 92.96 1345.66C91.87 1347.99 90.68 1349.08 90.55 1348.97C90.34 1348.82 91.17 1347.53 91.93 1345.25C92.71 1342.99 93.34 1339.66 92.81 1336.06C92.28 1332.49 90.82 1329.4 89.18 1327.76C87.56 1326.06 85.94 1325.99 85.97 1325.75Z" />
					</g>
				</g>
			</g>
			<g id="&lt;Group&gt;">
				<path id="&lt;Path&gt;" class="shp11" d="" />
			</g>
		</g>
	</g>
	<g id="Plant">
		<g id="&lt;Group&gt;">
			<g id="&lt;Group&gt;">
				<g id="&lt;Group&gt;">
					<path id="&lt;Path&gt;" class="shp5" d="M1149.34 1162.19L1149.34 1190.95L1358.62 1190.95L1358.62 1162.19L1149.34 1162.19Z" />
				</g>
				<g id="&lt;Group&gt;">
					<path id="&lt;Compound Path&gt;" fill-rule="evenodd" class="shp5" d="M1358.98 1191.31L1148.98 1191.31L1148.98 1161.83L1358.98 1161.83L1358.98 1191.31ZM1149.7 1190.59L1358.26 1190.59L1358.26 1162.55L1149.7 1162.55L1149.7 1190.59Z" />
				</g>
			</g>
			<g id="&lt;Group&gt;">
				<g id="&lt;Group&gt;">
					<path id="&lt;Path&gt;" class="shp5" d="M1168.75 1181.38L1198.87 1329.99L1310.33 1329.99L1339.45 1190.95L1168.75 1181.38Z" />
				</g>
			</g>
			<g id="&lt;Group&gt;">
				<g id="&lt;Group&gt;">
					<path id="&lt;Path&gt;" class="shp2" d="M1168.75 1315.93L1184.81 1338.02L1320.29 1338.02L1339.45 1315.93L1168.75 1315.93Z" />
				</g>
			</g>
			<g id="&lt;Group&gt;">
				<g id="&lt;Group&gt;">
					<g id="&lt;Group&gt;">
						<path id="&lt;Path&gt;" class="shp5" d="M1246.12 1185.72C1245.71 1185.72 1245.18 1116.87 1244.95 1031.96C1244.71 947.02 1244.85 878.18 1245.26 878.18C1245.67 878.18 1246.2 947.01 1246.44 1031.95C1246.68 1116.87 1246.54 1185.72 1246.12 1185.72Z" />
					</g>
				</g>
			</g>
			<g id="&lt;Group&gt;">
				<g id="&lt;Group&gt;">
					<g id="&lt;Group&gt;">
						<path id="&lt;Path&gt;" class="shp5" d="M1292.74 1013.42C1292.79 1013.45 1292.59 1014 1292.18 1015.02C1291.69 1016.19 1291.07 1017.67 1290.31 1019.48C1289.89 1020.46 1289.44 1021.53 1288.95 1022.69C1288.51 1023.9 1288.05 1025.21 1287.55 1026.6C1287.05 1028 1286.51 1029.5 1285.94 1031.08C1285.38 1032.67 1284.94 1034.4 1284.39 1036.19C1282.11 1043.33 1280.29 1052.08 1278.54 1061.82C1277.02 1071.6 1275.87 1082.44 1275.3 1093.86C1274.28 1116.72 1275.57 1137.46 1276.95 1152.39C1277.63 1159.86 1278.3 1165.9 1278.8 1170.07C1279.02 1172.03 1279.19 1173.62 1279.33 1174.88C1279.43 1175.98 1279.46 1176.56 1279.41 1176.57C1279.36 1176.58 1279.23 1176.01 1279.03 1174.92C1278.82 1173.67 1278.55 1172.09 1278.23 1170.15C1277.55 1166 1276.71 1159.97 1275.9 1152.5C1274.25 1137.56 1272.79 1116.76 1273.81 1093.79C1274.39 1082.31 1275.58 1071.42 1277.18 1061.59C1279.02 1051.8 1280.96 1043.02 1283.38 1035.88C1283.97 1034.09 1284.45 1032.36 1285.04 1030.77C1285.65 1029.2 1286.23 1027.71 1286.77 1026.3C1287.31 1024.92 1287.82 1023.62 1288.29 1022.42C1288.81 1021.25 1289.33 1020.2 1289.78 1019.25C1290.65 1017.48 1291.35 1016.04 1291.91 1014.89C1292.41 1013.91 1292.7 1013.4 1292.74 1013.42Z" />
					</g>
				</g>
			</g>
			<g id="&lt;Group&gt;">
				<g id="&lt;Group&gt;">
					<g id="&lt;Group&gt;">
						<path id="&lt;Path&gt;" class="shp5" d="M1287.39 957.74C1287.44 957.76 1287.21 958.54 1286.73 960.01C1286.18 961.6 1285.46 963.73 1284.55 966.41C1284.06 967.81 1283.53 969.35 1282.95 971.02C1282.43 972.74 1281.86 974.6 1281.26 976.58C1280.04 980.57 1278.62 985.09 1277.36 990.19C1276.69 992.73 1275.99 995.38 1275.26 998.15C1274.63 1000.94 1273.98 1003.85 1273.3 1006.85C1271.84 1012.85 1270.78 1019.36 1269.43 1026.16C1267.13 1039.83 1265.09 1054.95 1263.69 1070.89C1262.37 1086.85 1261.8 1102.1 1261.59 1115.97C1261.55 1129.84 1261.73 1142.34 1262.3 1152.82C1262.48 1158.07 1262.82 1162.81 1263.09 1166.97C1263.33 1171.13 1263.59 1174.71 1263.86 1177.64C1264.07 1180.46 1264.24 1182.7 1264.37 1184.38C1264.47 1185.92 1264.5 1186.74 1264.45 1186.74C1264.39 1186.75 1264.27 1185.95 1264.07 1184.41C1263.87 1182.74 1263.61 1180.5 1263.28 1177.69C1262.92 1174.77 1262.58 1171.19 1262.26 1167.03C1261.91 1162.87 1261.5 1158.13 1261.24 1152.88C1260.54 1142.39 1260.25 1129.87 1260.22 1115.96C1260.35 1102.06 1260.88 1086.77 1262.21 1070.77C1263.61 1054.78 1265.69 1039.62 1268.08 1025.92C1269.47 1019.1 1270.57 1012.58 1272.09 1006.58C1272.8 1003.57 1273.48 1000.67 1274.14 997.87C1274.91 995.1 1275.64 992.45 1276.34 989.91C1277.67 984.82 1279.17 980.3 1280.47 976.33C1281.11 974.35 1281.72 972.51 1282.27 970.8C1282.9 969.13 1283.48 967.61 1284 966.22C1285.02 963.58 1285.84 961.47 1286.45 959.9C1287.02 958.47 1287.34 957.72 1287.39 957.74Z" />
					</g>
				</g>
			</g>
			<g id="&lt;Group&gt;">
				<g id="&lt;Group&gt;">
					<g id="&lt;Group&gt;">
						<path id="&lt;Path&gt;" class="shp5" d="M1232.89 1197.9C1232.86 1197.9 1232.82 1197.63 1232.77 1197.09C1232.72 1196.47 1232.65 1195.69 1232.57 1194.72C1232.42 1192.53 1232.22 1189.48 1231.95 1185.61C1231.45 1177.57 1230.74 1166.14 1229.86 1152.07C1228.04 1123.76 1225.41 1084.65 1220.65 1041.63C1218.21 1020.13 1215.39 999.7 1212.46 981.19C1210.9 971.94 1209.48 963.15 1207.88 954.97C1206.4 946.76 1204.82 939.16 1203.36 932.22C1201.98 925.26 1200.45 919.03 1199.22 913.54C1198 908.04 1196.83 903.33 1195.85 899.49C1194.93 895.72 1194.2 892.75 1193.68 890.61C1193.46 889.66 1193.29 888.9 1193.15 888.3C1193.04 887.77 1192.99 887.5 1193.02 887.49C1193.04 887.49 1193.14 887.74 1193.29 888.25C1193.47 888.85 1193.69 889.6 1193.97 890.53C1194.55 892.65 1195.37 895.6 1196.41 899.34C1197.48 903.16 1198.74 907.85 1200.03 913.34C1201.34 918.83 1202.94 925.05 1204.39 932C1205.92 938.93 1207.56 946.53 1209.09 954.73C1210.75 962.92 1212.21 971.72 1213.81 980.96C1216.83 999.49 1219.69 1019.94 1222.13 1041.47C1226.9 1084.53 1229.36 1123.67 1230.91 1152.01C1231.68 1166.18 1232.21 1177.65 1232.53 1185.58C1232.68 1189.46 1232.79 1192.51 1232.87 1194.71C1232.89 1195.68 1232.91 1196.46 1232.92 1197.08C1232.92 1197.62 1232.91 1197.9 1232.89 1197.9Z" />
					</g>
				</g>
			</g>
			<g id="&lt;Group&gt;">
				<g id="&lt;Group&gt;">
					<path id="&lt;Path&gt;" class="shp12" d="M1244.42 911.28C1243.51 901.52 1233.65 894.17 1223.85 894.07C1214.06 893.96 1204.93 899.84 1198.94 907.59C1192.95 915.34 1189.64 924.8 1186.94 934.22C1180.34 957.2 1176.74 981.34 1179.56 1005.08C1182.38 1028.82 1192.01 1052.2 1209.05 1068.97C1211.82 1071.7 1215.4 1074.42 1219.2 1073.61C1221.28 1073.17 1222.99 1071.73 1224.56 1070.3C1258.03 1040.07 1277.35 994.79 1276.03 949.71C1275.77 940.68 1274.58 931.29 1269.58 923.77C1264.58 916.24 1252.93 908.26 1244.42 911.28Z" />
				</g>
			</g>
			<g id="&lt;Group&gt;">
				<g id="&lt;Group&gt;">
					<g id="&lt;Group&gt;">
						<path id="&lt;Path&gt;" class="shp13" d="M1171.27 833.15C1166.67 841.48 1162.07 849.81 1157.47 858.14C1157.15 858.72 1156.73 859.37 1156.06 859.43C1155.34 859.49 1154.8 858.8 1154.4 858.2C1142.24 839.53 1130.08 820.87 1117.92 802.22L1126.33 797.45L1171.27 833.15Z" />
					</g>
				</g>
				<g id="&lt;Group&gt;" style="opacity: 0.2">
					<g id="&lt;Group&gt;">
						<g id="&lt;Group&gt;">
							<path id="&lt;Path&gt;" class="shp14" d="M1174.27 833.15C1169.67 841.48 1165.07 849.81 1160.47 858.14C1160.15 858.72 1159.73 859.37 1159.06 859.43C1158.34 859.49 1157.8 858.8 1157.4 858.2C1145.24 839.53 1133.08 820.87 1120.92 802.22L1129.33 797.45L1174.27 833.15Z" />
						</g>
					</g>
				</g>
				<g id="&lt;Group&gt;">
					<g id="&lt;Group&gt;">
						<path id="&lt;Path&gt;" class="shp12" d="M1245.26 878.18C1203.78 853.7 1162.31 829.23 1120.83 804.76C1119.56 804.01 1118.19 803.12 1117.8 801.7C1117.31 799.86 1118.69 798.08 1120.02 796.71C1137.13 779.06 1161.99 768.83 1186.51 770.59C1211.03 772.36 1234.62 786.52 1246.63 807.98C1258.63 829.43 1259.03 857.81 1245.26 878.18Z" />
					</g>
				</g>
				<g id="&lt;Group&gt;">
					<g id="&lt;Group&gt;">
						<g id="&lt;Group&gt;">
							<path id="&lt;Path&gt;" class="shp5" d="M1138.77 781.32C1138.76 781.27 1139.32 781.2 1140.4 781.12C1141.47 781.06 1143.05 780.87 1145.1 780.89C1149.19 780.79 1155.13 781.06 1162.36 782.26C1169.59 783.45 1178.08 785.77 1186.95 789.73C1195.81 793.67 1204.98 799.37 1213.34 806.85C1221.63 814.42 1228.21 822.98 1233.01 831.41C1237.83 839.85 1240.99 848.06 1242.9 855.13C1244.81 862.21 1245.67 868.1 1245.98 872.18C1246.21 874.21 1246.17 875.8 1246.22 876.88C1246.25 877.95 1246.24 878.52 1246.18 878.52C1246.05 878.53 1245.9 876.27 1245.4 872.24C1244.92 868.2 1243.91 862.39 1241.88 855.42C1237.95 841.57 1228.82 822.88 1212.34 807.96C1195.85 793.06 1176.36 785.83 1162.18 783.3C1155.04 781.98 1149.16 781.55 1145.09 781.47C1141.03 781.38 1138.77 781.45 1138.77 781.32Z" />
						</g>
					</g>
				</g>
				<g id="&lt;Group&gt;">
					<g id="&lt;Group&gt;">
						<g id="&lt;Group&gt;">
							<path id="&lt;Path&gt;" class="shp5" d="M1228.42 827.5C1228.49 827.69 1226.09 828.8 1222.13 830.36C1218.16 831.92 1212.62 833.92 1206.43 835.89C1200.23 837.86 1194.55 839.42 1190.41 840.43C1186.27 841.45 1183.68 841.92 1183.62 841.73C1183.57 841.52 1186.07 840.69 1190.13 839.42C1194.71 837.99 1200.06 836.31 1205.98 834.47C1211.87 832.57 1217.2 830.84 1221.77 829.37C1225.82 828.06 1228.34 827.3 1228.42 827.5Z" />
						</g>
					</g>
				</g>
				<g id="&lt;Group&gt;">
					<g id="&lt;Group&gt;">
						<g id="&lt;Group&gt;">
							<path id="&lt;Path&gt;" class="shp5" d="M1208.82 774.87C1209.22 774.83 1210.11 781.04 1210.3 788.75C1210.5 796.47 1209.93 802.71 1209.53 802.69C1209.11 802.67 1209.01 796.45 1208.8 788.79C1208.62 781.13 1208.4 774.91 1208.82 774.87Z" />
						</g>
					</g>
				</g>
				<g id="&lt;Group&gt;">
					<g id="&lt;Group&gt;">
						<g id="&lt;Group&gt;">
							<path id="&lt;Path&gt;" class="shp5" d="M1119.75 803.36C1119.69 803.17 1123.13 801.93 1128.79 800.18C1134.44 798.44 1142.31 796.24 1151.09 794.12C1159.87 792.01 1167.88 790.38 1173.71 789.36C1179.53 788.34 1183.17 787.88 1183.2 788.08C1183.24 788.29 1179.68 789.11 1173.91 790.4C1168.15 791.68 1160.19 793.46 1151.44 795.57C1142.68 797.68 1134.79 799.72 1129.07 801.2C1123.36 802.68 1119.81 803.57 1119.75 803.36Z" />
						</g>
					</g>
				</g>
			</g>
			<g id="&lt;Group&gt;">
				<g id="&lt;Group&gt;">
					<g id="&lt;Group&gt;">
						<path id="&lt;Path&gt;" class="shp12" d="M1187.89 888.19C1177.19 880.08 1165.87 878.48 1152.45 879.01C1139.03 879.54 1125.97 883.63 1113.67 889.02C1092.69 898.21 1072.96 911.75 1060.43 930.92C1047.89 950.09 1043.53 975.47 1052.92 996.36C1053.85 998.45 1055.07 1000.62 1057.16 1001.52C1059.37 1002.47 1061.9 1001.73 1064.19 1000.98C1088.05 993.2 1112.08 985.34 1134.02 973.15C1155.96 960.96 1175.94 944.01 1187.71 921.84C1190.53 916.53 1192.9 910.82 1193.36 904.82C1193.82 898.81 1192.16 892.43 1187.89 888.19Z" />
					</g>
				</g>
				<g id="&lt;Group&gt;">
					<g id="&lt;Group&gt;">
						<g id="&lt;Group&gt;">
							<path id="&lt;Path&gt;" class="shp5" d="M1188.1 885.67C1188.11 885.72 1187.52 885.96 1186.38 886.37C1185.09 886.82 1183.43 887.39 1181.38 888.09C1180.28 888.46 1179.07 888.86 1177.76 889.3C1176.45 889.77 1175.05 890.36 1173.53 890.95C1170.51 892.17 1167.01 893.39 1163.32 895.18C1161.45 896.03 1159.5 896.92 1157.46 897.84C1155.44 898.78 1153.41 899.93 1151.26 901.03C1146.94 903.15 1142.56 905.86 1137.9 908.62C1128.76 914.4 1119.07 921.36 1109.65 929.57C1100.3 937.87 1092.16 946.59 1085.26 954.93C1081.94 959.2 1078.69 963.2 1076.03 967.22C1074.67 969.21 1073.27 971.07 1072.08 972.96C1070.91 974.86 1069.78 976.68 1068.7 978.43C1066.45 981.86 1064.79 985.18 1063.2 988.02C1062.42 989.45 1061.66 990.76 1061.02 992C1060.42 993.25 1059.87 994.39 1059.36 995.44C1058.4 997.39 1057.63 998.96 1057.02 1000.18C1056.47 1001.26 1056.16 1001.81 1056.11 1001.79C1056.06 1001.77 1056.28 1001.18 1056.75 1000.06C1057.29 998.8 1057.98 997.19 1058.84 995.19C1059.31 994.12 1059.83 992.96 1060.39 991.69C1060.99 990.42 1061.71 989.09 1062.46 987.63C1063.99 984.74 1065.59 981.37 1067.79 977.89C1068.85 976.12 1069.96 974.26 1071.12 972.34C1072.28 970.42 1073.67 968.53 1075.01 966.51C1077.64 962.44 1080.88 958.39 1084.19 954.07C1091.08 945.62 1099.25 936.81 1108.66 928.45C1118.15 920.18 1127.93 913.2 1137.18 907.45C1141.89 904.71 1146.32 902.02 1150.7 899.93C1152.87 898.85 1154.92 897.72 1156.97 896.8C1159.03 895.9 1161 895.04 1162.89 894.21C1166.63 892.47 1170.18 891.32 1173.24 890.16C1174.78 889.61 1176.2 889.06 1177.53 888.63C1178.86 888.23 1180.08 887.87 1181.2 887.54C1183.29 886.94 1184.98 886.46 1186.3 886.08C1187.46 885.77 1188.08 885.62 1188.1 885.67Z" />
						</g>
					</g>
				</g>
				<g id="&lt;Group&gt;">
					<g id="&lt;Group&gt;">
						<g id="&lt;Group&gt;">
							<path id="&lt;Path&gt;" class="shp5" d="M1104.49 930.94C1104.61 931.34 1092.95 935.09 1078.46 939.33C1063.97 943.57 1052.13 946.68 1052.01 946.29C1051.9 945.89 1063.55 942.14 1078.05 937.9C1092.54 933.66 1104.38 930.55 1104.49 930.94Z" />
						</g>
					</g>
				</g>
				<g id="&lt;Group&gt;">
					<g id="&lt;Group&gt;">
						<g id="&lt;Group&gt;">
							<path id="&lt;Path&gt;" class="shp5" d="M1103.42 988.39C1103.22 988.39 1102.99 985.29 1102.85 980.27C1102.71 975.26 1102.69 968.33 1102.91 960.68C1103.12 953.02 1103.53 946.1 1103.95 941.1C1104.36 936.11 1104.77 933.03 1104.97 933.04C1105.18 933.05 1105.15 936.16 1105 941.16C1104.83 946.66 1104.62 953.34 1104.4 960.72C1104.21 968.1 1104.04 974.78 1103.91 980.27C1103.77 985.28 1103.63 988.38 1103.42 988.39Z" />
						</g>
					</g>
				</g>
				<g id="&lt;Group&gt;">
					<g id="&lt;Group&gt;">
						<g id="&lt;Group&gt;">
							<path id="&lt;Path&gt;" class="shp5" d="M1152.63 963.32C1152.22 963.35 1150.91 949.26 1149.71 931.86C1148.51 914.46 1147.86 900.33 1148.27 900.3C1148.68 900.27 1149.99 914.35 1151.2 931.76C1152.4 949.16 1153.04 963.29 1152.63 963.32Z" />
						</g>
					</g>
				</g>
				<g id="&lt;Group&gt;">
					<g id="&lt;Group&gt;">
						<g id="&lt;Group&gt;">
							<path id="&lt;Path&gt;" class="shp5" d="M1091.38 898.93C1091.39 898.73 1094.58 898.65 1099.72 898.68C1104.87 898.72 1111.97 898.87 1119.81 899.13C1127.65 899.39 1134.75 899.7 1139.89 900.01C1145.02 900.31 1148.2 900.6 1148.19 900.81C1148.19 901.02 1145.01 901.1 1139.86 901.06C1134.72 901.03 1127.61 900.88 1119.76 900.62C1111.91 900.36 1104.81 900.04 1099.68 899.73C1094.54 899.43 1091.37 899.14 1091.38 898.93Z" />
						</g>
					</g>
				</g>
			</g>
			<g id="&lt;Group&gt;">
				<g id="&lt;Group&gt;">
					<g id="&lt;Group&gt;">
						<path id="&lt;Path&gt;" class="shp5" d="M1214.38 1075.67C1214.33 1075.67 1214.27 1075.09 1214.2 1073.97C1214.15 1072.69 1214.07 1071.07 1213.99 1069.08C1213.8 1064.84 1213.75 1058.68 1213.91 1051.08C1214.05 1043.48 1214.56 1034.44 1215.45 1024.43C1216.42 1014.42 1217.82 1003.45 1219.83 992.02C1221.89 980.6 1224.36 969.81 1226.91 960.09C1229.53 950.38 1232.18 941.72 1234.67 934.54C1237.15 927.35 1239.31 921.59 1240.96 917.67C1241.73 915.84 1242.35 914.34 1242.85 913.16C1243.3 912.14 1243.55 911.61 1243.6 911.63C1243.65 911.65 1243.49 912.21 1243.13 913.27C1242.7 914.48 1242.16 916 1241.5 917.88C1240.02 921.86 1238.02 927.66 1235.68 934.87C1233.31 942.07 1230.78 950.74 1228.24 960.43C1225.78 970.15 1223.35 980.9 1221.3 992.28C1219.3 1003.67 1217.86 1014.59 1216.82 1024.56C1215.85 1034.53 1215.24 1043.54 1214.97 1051.12C1214.67 1058.69 1214.56 1064.83 1214.57 1069.07C1214.54 1071.06 1214.52 1072.68 1214.5 1073.96C1214.47 1075.08 1214.43 1075.67 1214.38 1075.67Z" />
					</g>
				</g>
			</g>
			<g id="&lt;Group&gt;">
				<g id="&lt;Group&gt;">
					<g id="&lt;Group&gt;">
						<path id="&lt;Path&gt;" class="shp5" d="M1220.95 990.77C1221.09 990.92 1219.2 993.01 1215.98 996.22C1212.76 999.43 1208.19 1003.74 1202.98 1008.31C1197.76 1012.89 1192.89 1016.86 1189.29 1019.63C1185.68 1022.4 1183.36 1023.99 1183.24 1023.83C1183.1 1023.67 1185.19 1021.79 1188.62 1018.81C1192.44 1015.49 1196.98 1011.55 1201.99 1007.19C1206.97 1002.79 1211.47 998.81 1215.26 995.45C1218.66 992.45 1220.8 990.62 1220.95 990.77Z" />
					</g>
				</g>
			</g>
			<g id="&lt;Group&gt;">
				<g id="&lt;Group&gt;">
					<g id="&lt;Group&gt;">
						<path id="&lt;Path&gt;" class="shp5" d="M1260.33 1022.5C1260.15 1022.61 1258.18 1019.78 1255.04 1015.18C1251.64 1010.21 1247.42 1004.05 1242.75 997.23C1237.98 990.48 1233.67 984.38 1230.2 979.47C1226.97 974.93 1225 972.09 1225.17 971.96C1225.33 971.84 1227.59 974.45 1231.04 978.83C1234.49 983.22 1239.11 989.39 1243.97 996.38C1248.83 1003.37 1253.02 1009.85 1255.93 1014.61C1258.84 1019.36 1260.5 1022.39 1260.33 1022.5Z" />
					</g>
				</g>
			</g>
			<g id="&lt;Group&gt;">
				<g id="&lt;Group&gt;">
					<g id="&lt;Group&gt;">
						<path id="&lt;Path&gt;" class="shp5" d="M1239.7 922.73C1239.92 923.07 1226.84 931.88 1210.48 942.4C1194.12 952.92 1180.68 961.16 1180.45 960.81C1180.23 960.47 1193.31 951.66 1209.67 941.14C1226.03 930.63 1239.48 922.38 1239.7 922.73Z" />
					</g>
				</g>
			</g>
			<g id="&lt;Group&gt;">
				<g id="&lt;Group&gt;">
					<g id="&lt;Group&gt;">
						<path id="&lt;Path&gt;" class="shp5" d="M1276.59 962.54C1276.3 962.84 1267.44 954.65 1256.8 944.26C1246.16 933.86 1237.76 925.2 1238.05 924.9C1238.34 924.61 1247.2 932.8 1257.84 943.19C1268.48 953.58 1276.88 962.25 1276.59 962.54Z" />
					</g>
				</g>
			</g>
			<g id="&lt;Group&gt;">
				<g id="&lt;Group&gt;">
					<g id="&lt;Group&gt;">
						<path id="&lt;Path&gt;" class="shp12" d="M1285.86 961.74L1297.1 960.81C1305.07 960.15 1312.81 957.79 1319.77 953.87C1323.22 951.93 1326.68 950.03 1330.34 948.56C1344.23 942.99 1359.72 943.99 1374.67 943.24C1399.06 942.01 1423.19 935.84 1445.17 925.21C1446.44 924.59 1447.56 923.66 1448.24 922.42C1450.55 918.22 1446.26 914.47 1442.58 912.2C1423.66 900.54 1404.4 888.74 1382.94 882.95C1361.48 877.16 1337.13 878.14 1318.82 890.74C1297.33 905.53 1289.5 935.91 1285.86 961.74Z" />
					</g>
				</g>
				<g id="&lt;Group&gt;">
					<g id="&lt;Group&gt;">
						<g id="&lt;Group&gt;">
							<path id="&lt;Path&gt;" class="shp5" d="M1448.5 921.04C1448.47 921.08 1447.82 920.78 1446.59 920.15C1445.24 919.45 1443.48 918.52 1441.27 917.36C1436.65 914.94 1430 911.35 1421.61 907.33C1413.2 903.34 1403.02 898.84 1391.17 895.6C1379.38 892.32 1365.76 890.6 1351.73 892.4C1337.75 894.24 1324.88 899.68 1315.77 907.84C1306.6 915.98 1301 925.8 1297.04 934.14C1293.1 942.56 1290.67 949.72 1288.9 954.62C1288.07 956.97 1287.4 958.85 1286.9 960.28C1286.43 961.58 1286.16 962.25 1286.11 962.23C1286.06 962.22 1286.24 961.51 1286.61 960.19C1287.05 958.74 1287.63 956.82 1288.35 954.44C1289.95 949.47 1292.23 942.24 1296.09 933.7C1299.95 925.23 1305.52 915.2 1314.86 906.81C1324.14 898.39 1337.31 892.79 1351.53 890.92C1365.81 889.09 1379.64 890.89 1391.54 894.27C1403.49 897.63 1413.69 902.26 1422.07 906.38C1430.44 910.54 1437.01 914.27 1441.55 916.86C1443.7 918.11 1445.42 919.12 1446.74 919.89C1447.91 920.6 1448.52 920.99 1448.5 921.04Z" />
						</g>
					</g>
				</g>
				<g id="&lt;Group&gt;">
					<g id="&lt;Group&gt;">
						<g id="&lt;Group&gt;">
							<path id="&lt;Path&gt;" class="shp5" d="M1421.52 935.53C1421.29 935.87 1406.61 926.37 1388.72 914.31C1370.83 902.24 1356.52 892.19 1356.75 891.85C1356.98 891.51 1371.66 901.01 1389.55 913.07C1407.44 925.13 1421.75 935.19 1421.52 935.53Z" />
						</g>
					</g>
				</g>
				<g id="&lt;Group&gt;">
					<g id="&lt;Group&gt;">
						<g id="&lt;Group&gt;">
							<path id="&lt;Path&gt;" class="shp5" d="M1407.41 890.44C1407.49 890.84 1402.4 892.16 1395.95 892.74C1389.5 893.35 1384.25 892.97 1384.26 892.58C1384.26 892.15 1389.45 891.85 1395.81 891.26C1402.18 890.68 1407.34 890.03 1407.41 890.44Z" />
						</g>
					</g>
				</g>
				<g id="&lt;Group&gt;">
					<g id="&lt;Group&gt;">
						<g id="&lt;Group&gt;">
							<path id="&lt;Path&gt;" class="shp5" d="M1341.56 878.64C1341.91 878.85 1339.75 883.17 1336.74 888.28C1333.72 893.39 1330.99 897.37 1330.64 897.16C1330.28 896.95 1332.44 892.64 1335.45 887.52C1338.47 882.41 1341.2 878.44 1341.56 878.64Z" />
						</g>
					</g>
				</g>
				<g id="&lt;Group&gt;">
					<g id="&lt;Group&gt;">
						<g id="&lt;Group&gt;">
							<path id="&lt;Path&gt;" class="shp5" d="M1354.72 944.18C1354.62 944.35 1351.89 942.92 1347.65 940.35C1343.41 937.77 1337.67 934 1331.54 929.55C1325.42 925.1 1320.01 920.89 1316.13 917.82C1312.26 914.73 1309.91 912.75 1310.03 912.59C1310.16 912.42 1312.73 914.1 1316.77 916.97C1321.17 920.17 1326.51 924.05 1332.42 928.35C1338.53 932.78 1344.14 936.67 1348.22 939.46C1352.3 942.26 1354.83 944 1354.72 944.18Z" />
						</g>
					</g>
				</g>
			</g>
			<g id="&lt;Group&gt;">
				<g id="&lt;Group&gt;">
					<g id="&lt;Group&gt;">
						<path id="&lt;Path&gt;" class="shp12" d="M1302.4 1009.46C1291.69 1006.63 1278.92 1017.05 1276.71 1027.91C1274.5 1038.76 1278.58 1049.87 1283.34 1059.87C1293.9 1082.01 1308.46 1102.54 1327.64 1117.83C1346.82 1133.11 1370.85 1142.89 1395.37 1142.76C1390.84 1121.73 1396.57 1099.75 1394.05 1078.39C1391.84 1059.74 1383.15 1041.92 1369.8 1028.7C1356.46 1015.49 1338.55 1006.97 1319.88 1004.95C1313.04 1004.22 1305.13 1003.14 1302.4 1009.46Z" />
					</g>
				</g>
				<g id="&lt;Group&gt;">
					<g id="&lt;Group&gt;">
						<g id="&lt;Group&gt;">
							<path id="&lt;Path&gt;" class="shp5" d="M1395.37 1142.76C1395.35 1142.81 1394.83 1142.56 1393.85 1142.05C1392.88 1141.53 1391.49 1140.67 1389.84 1139.36C1386.48 1136.81 1382.63 1131.89 1379.26 1125.22C1377.56 1121.9 1375.65 1118.3 1373.78 1114.31C1371.97 1110.31 1370.05 1106.05 1368.02 1101.57C1365.98 1097.11 1363.73 1092.48 1360.94 1087.96C1358.16 1083.43 1354.85 1079.01 1351.19 1074.7C1343.86 1066.09 1335.99 1058.64 1329.17 1051.52C1322.31 1044.42 1316.54 1037.59 1312.37 1031.37C1308.17 1025.17 1305.62 1019.61 1304.17 1015.7C1303.48 1013.72 1302.98 1012.18 1302.74 1011.1C1302.47 1010.04 1302.35 1009.47 1302.4 1009.46C1302.54 1009.42 1303.15 1011.64 1304.71 1015.49C1306.31 1019.3 1308.97 1024.71 1313.24 1030.77C1317.48 1036.85 1323.27 1043.55 1330.15 1050.56C1337 1057.6 1344.92 1065.04 1352.33 1073.74C1356.03 1078.09 1359.37 1082.58 1362.18 1087.2C1365.01 1091.81 1367.25 1096.51 1369.27 1101.01C1371.25 1105.5 1373.14 1109.78 1374.91 1113.8C1376.7 1117.76 1378.56 1121.4 1380.2 1124.73C1383.43 1131.42 1387.03 1136.27 1390.21 1138.92C1393.34 1141.62 1395.46 1142.62 1395.37 1142.76Z" />
						</g>
					</g>
				</g>
				<g id="&lt;Group&gt;">
					<g id="&lt;Group&gt;">
						<g id="&lt;Group&gt;">
							<path id="&lt;Path&gt;" class="shp5" d="M1339.98 1125.28C1339.78 1125.24 1340.12 1122.48 1340.96 1118.07C1341.8 1113.66 1343.18 1107.6 1345.03 1101.01C1346.89 1094.41 1348.88 1088.52 1350.47 1084.32C1352.05 1080.12 1353.21 1077.59 1353.39 1077.66C1353.59 1077.73 1352.79 1080.39 1351.47 1084.67C1350.14 1088.94 1348.32 1094.84 1346.47 1101.41C1344.62 1107.98 1343.09 1113.96 1341.99 1118.3C1340.89 1122.64 1340.19 1125.32 1339.98 1125.28Z" />
						</g>
					</g>
				</g>
				<g id="&lt;Group&gt;">
					<g id="&lt;Group&gt;">
						<g id="&lt;Group&gt;">
							<path id="&lt;Path&gt;" class="shp5" d="M1393.34 1073.65C1393.28 1073.86 1390.41 1073.12 1385.8 1071.92C1381.18 1070.71 1374.81 1069.06 1367.72 1067.46C1360.62 1065.87 1354.16 1064.62 1349.47 1063.73C1344.78 1062.85 1341.88 1062.28 1341.91 1062.07C1341.94 1061.87 1344.89 1062.07 1349.64 1062.69C1354.38 1063.32 1360.91 1064.4 1368.04 1066.01C1375.17 1067.62 1381.54 1069.43 1386.09 1070.9C1390.65 1072.38 1393.4 1073.46 1393.34 1073.65Z" />
						</g>
					</g>
				</g>
				<g id="&lt;Group&gt;">
					<g id="&lt;Group&gt;">
						<g id="&lt;Group&gt;">
							<path id="&lt;Path&gt;" class="shp5" d="M1300.23 1088.65C1300.03 1088.61 1300.45 1085.42 1301.39 1080.31C1302.33 1075.19 1303.83 1068.16 1305.83 1060.48C1307.84 1052.8 1309.97 1045.93 1311.64 1041.01C1313.32 1036.09 1314.52 1033.1 1314.71 1033.17C1314.91 1033.23 1314.07 1036.34 1312.65 1041.33C1311.23 1046.32 1309.27 1053.21 1307.27 1060.86C1305.28 1068.51 1303.62 1075.48 1302.42 1080.53C1301.22 1085.57 1300.44 1088.69 1300.23 1088.65Z" />
						</g>
					</g>
				</g>
				<g id="&lt;Group&gt;">
					<g id="&lt;Group&gt;">
						<g id="&lt;Group&gt;">
							<path id="&lt;Path&gt;" class="shp5" d="M1368.77 1028.66C1368.72 1029.07 1355.35 1027.98 1338.9 1026.24C1322.45 1024.49 1309.15 1022.75 1309.19 1022.34C1309.24 1021.93 1322.6 1023.01 1339.06 1024.76C1355.51 1026.5 1368.81 1028.25 1368.77 1028.66Z" />
						</g>
					</g>
				</g>
			</g>
			<g id="&lt;Group&gt;">
				<g id="&lt;Group&gt;">
					<g id="&lt;Group&gt;">
						<path id="&lt;Path&gt;" class="shp2" d="M1358.97 1190.83C1358.97 1191.24 1311.96 1191.57 1253.99 1191.57C1195.99 1191.57 1148.99 1191.24 1148.99 1190.83C1148.99 1190.42 1195.99 1190.08 1253.99 1190.08C1311.96 1190.08 1358.97 1190.42 1358.97 1190.83Z" />
					</g>
				</g>
			</g>
			<g id="&lt;Group&gt;">
				<g id="&lt;Group&gt;">
					<g id="&lt;Group&gt;">
						<path id="&lt;Path&gt;" class="shp2" d="M1326.27 1251.32C1326.27 1251.73 1294.59 1252.07 1255.53 1252.07C1216.46 1252.07 1184.79 1251.73 1184.79 1251.32C1184.79 1250.91 1216.46 1250.58 1255.53 1250.58C1294.59 1250.58 1326.27 1250.91 1326.27 1251.32Z" />
					</g>
				</g>
			</g>
			<g id="&lt;Group&gt;">
				<g id="&lt;Group&gt;">
					<g id="&lt;Group&gt;">
						<path id="&lt;Path&gt;" class="shp2" d="M1327.5 1259.97C1327.5 1260.38 1295.83 1260.72 1256.77 1260.72C1217.69 1260.72 1186.02 1260.38 1186.02 1259.97C1186.02 1259.56 1217.69 1259.22 1256.77 1259.22C1295.83 1259.22 1327.5 1259.56 1327.5 1259.97Z" />
					</g>
				</g>
			</g>
			<g id="&lt;Group&gt;">
				<g id="&lt;Group&gt;">
					<g id="&lt;Group&gt;">
						<path id="&lt;Path&gt;" class="shp2" d="M1327.5 1244.19C1327.5 1244.6 1294.74 1244.94 1254.34 1244.94C1213.92 1244.94 1181.16 1244.6 1181.16 1244.19C1181.16 1243.78 1213.92 1243.45 1254.34 1243.45C1294.74 1243.45 1327.5 1243.78 1327.5 1244.19Z" />
					</g>
				</g>
			</g>
		</g>
	</g>
	<path id="Layer" fill-rule="evenodd" class="shp4" d="M896 414.89L896 432C896 442.91 889.09 454.12 877.09 462.77C867.49 469.71 855.79 474.11 843.48 475.51C833.88 491.43 822.67 498 822.67 498L822.67 520L837.33 520C848.12 520 856.89 526.32 856.89 537.11L856.89 540.78C856.89 542.79 855.24 544.44 853.22 544.44L762.78 544.44C760.76 544.44 759.11 542.79 759.11 540.78L759.11 537.11C759.11 526.33 767.88 520 778.67 520L793.33 520L793.33 498C793.33 498 782.12 491.43 772.53 475.51C760.24 474.11 748.54 469.71 738.91 462.77C726.87 454.12 720 442.91 720 432L720 414.89C720 410.83 723.27 407.56 727.33 407.56L759.11 407.56L759.11 395.33C759.11 391.27 762.38 388 766.44 388L849.56 388C853.62 388 856.89 391.27 856.89 395.33L856.89 407.56L888.67 407.56C892.73 407.56 896 410.82 896 414.89ZM750.34 446.91C754.16 449.66 758.47 451.86 763.08 453.45C760.94 445.81 759.48 437.07 759.17 427.11L739.56 427.11L739.56 432C739.56 435.54 742.89 441.53 750.34 446.91ZM876.44 427.11L856.8 427.11C856.49 437.07 855.02 445.81 852.89 453.45C857.5 451.86 861.84 449.66 865.66 446.91C871.04 443.03 876.44 436.92 876.44 432L876.44 427.11Z" />
	<path id="Layer" class="shp4" d="M742.76 957.55L739.15 953.94C737.62 952.41 737.62 949.94 739.15 948.43L770.74 916.82C772.27 915.29 774.74 915.29 776.26 916.82L807.85 948.41C809.38 949.94 809.38 952.41 807.85 953.93L804.24 957.54C802.7 959.08 800.18 959.05 798.67 957.47L780.01 937.89L780.01 984.63C780.01 986.79 778.27 988.53 776.11 988.53L770.91 988.53C768.74 988.53 767 986.79 767 984.63L767 937.89L748.33 957.49C746.82 959.08 744.3 959.11 742.76 957.55L742.76 957.55Z" />
	<path id="Layer copy 5" class="shp4" d="M726.67 699.62L725.4 698.35C724.87 697.81 724.87 696.94 725.4 696.41L736.53 685.28C737.07 684.74 737.94 684.74 738.47 685.28L749.6 696.41C750.13 696.94 750.13 697.81 749.6 698.35L748.33 699.62C747.78 700.16 746.89 700.15 746.36 699.6L739.79 692.7L739.79 709.16C739.79 709.92 739.18 710.53 738.42 710.53L736.59 710.53C735.83 710.53 735.21 709.92 735.21 709.16L735.21 692.7L728.64 699.6C728.11 700.16 727.22 700.17 726.67 699.62L726.67 699.62Z" />
	<path id="Layer copy 4" class="shp4" d="M809.88 775.77L807.69 773.58C806.77 772.66 806.77 771.16 807.69 770.24L826.83 751.1C827.76 750.17 829.25 750.17 830.17 751.1L849.31 770.23C850.23 771.16 850.23 772.66 849.31 773.57L847.12 775.76C846.18 776.7 844.66 776.68 843.74 775.72L832.44 763.86L832.44 792.17C832.44 793.48 831.39 794.53 830.08 794.53L826.93 794.53C825.62 794.53 824.57 793.48 824.57 792.17L824.57 763.86L813.26 775.73C812.34 776.7 810.82 776.72 809.88 775.77L809.88 775.77Z" />
	<path id="Layer" fill-rule="evenodd" class="shp4" d="M743.25 852L693.75 852C690.02 852 687 848.98 687 845.25L687 795.75C687 792.02 690.02 789 693.75 789L743.25 789C746.98 789 750 792.02 750 795.75L750 845.25C750 848.98 746.98 852 743.25 852ZM740.34 812.34C741.22 811.46 741.22 810.03 740.34 809.15L737.16 805.97C736.28 805.09 734.86 805.09 733.98 805.97L712.88 827.07L703.02 817.22C702.14 816.34 700.72 816.34 699.84 817.22L696.66 820.4C695.78 821.28 695.78 822.71 696.66 823.59L711.28 838.21C712.16 839.09 713.59 839.09 714.47 838.21L740.34 812.34Z" />
	<path id="Layer copy 7" fill-rule="evenodd" class="shp4" d="M901.25 928L851.75 928C848.02 928 845 924.98 845 921.25L845 871.75C845 868.02 848.02 865 851.75 865L901.25 865C904.98 865 908 868.02 908 871.75L908 921.25C908 924.98 904.98 928 901.25 928ZM898.34 888.34C899.22 887.46 899.22 886.03 898.34 885.15L895.16 881.97C894.28 881.09 892.86 881.09 891.98 881.97L870.88 903.07L861.02 893.22C860.14 892.34 858.72 892.34 857.84 893.22L854.66 896.4C853.78 897.28 853.78 898.71 854.66 899.59L869.28 914.21C870.16 915.09 871.59 915.09 872.47 914.21L898.34 888.34Z" />
</svg>