<?xml version="1.0" standalone="no"?>
<svg xmlns:xlink="http://www.w3.org/1999/xlink" id="wave" style="transform:rotate(0deg); transition: 0.3s" viewBox="0 0 1440 490" version="1.1" xmlns="http://www.w3.org/2000/svg"><defs><linearGradient id="sw-gradient-0" x1="0" x2="0" y1="1" y2="0"><stop stop-color="rgba(129, 178, 154, 1)" offset="0%"/><stop stop-color="rgba(129, 178, 154, 1)" offset="100%"/></linearGradient></defs><path style="transform:translate(0, 0px); opacity:1" fill="url(#sw-gradient-0)" d="M0,245L80,204.2C160,163,320,82,480,49C640,16,800,33,960,89.8C1120,147,1280,245,1440,285.8C1600,327,1760,310,1920,294C2080,278,2240,261,2400,236.8C2560,212,2720,180,2880,212.3C3040,245,3200,343,3360,326.7C3520,310,3680,180,3840,171.5C4000,163,4160,278,4320,302.2C4480,327,4640,261,4800,236.8C4960,212,5120,229,5280,253.2C5440,278,5600,310,5760,277.7C5920,245,6080,147,6240,122.5C6400,98,6560,147,6720,155.2C6880,163,7040,131,7200,106.2C7360,82,7520,65,7680,81.7C7840,98,8000,147,8160,196C8320,245,8480,294,8640,285.8C8800,278,8960,212,9120,171.5C9280,131,9440,114,9600,122.5C9760,131,9920,163,10080,220.5C10240,278,10400,359,10560,400.2C10720,441,10880,441,11040,441C11200,441,11360,441,11440,441L11520,441L11520,490L11440,490C11360,490,11200,490,11040,490C10880,490,10720,490,10560,490C10400,490,10240,490,10080,490C9920,490,9760,490,9600,490C9440,490,9280,490,9120,490C8960,490,8800,490,8640,490C8480,490,8320,490,8160,490C8000,490,7840,490,7680,490C7520,490,7360,490,7200,490C7040,490,6880,490,6720,490C6560,490,6400,490,6240,490C6080,490,5920,490,5760,490C5600,490,5440,490,5280,490C5120,490,4960,490,4800,490C4640,490,4480,490,4320,490C4160,490,4000,490,3840,490C3680,490,3520,490,3360,490C3200,490,3040,490,2880,490C2720,490,2560,490,2400,490C2240,490,2080,490,1920,490C1760,490,1600,490,1440,490C1280,490,1120,490,960,490C800,490,640,490,480,490C320,490,160,490,80,490L0,490Z"/></svg>